<mxfile host="app.diagrams.net" agent="Mozilla/5.0 (Windows NT 10.0; Win64; x64) AppleWebKit/537.36 (KHTML, like Gecko) Chrome/131.0.0.0 Safari/537.36 Edg/131.0.0.0" version="24.8.6">
  <diagram name="Page-1" id="fCXqBcOIvFdSVEsdeiMk">
    <mxGraphModel dx="1666" dy="747" grid="1" gridSize="10" guides="1" tooltips="1" connect="1" arrows="1" fold="1" page="1" pageScale="1" pageWidth="827" pageHeight="1169" math="0" shadow="0">
      <root>
        <mxCell id="0" />
        <mxCell id="1" parent="0" />
        <mxCell id="t8eUcsItaZwYu466m45F-1" value="Proces" style="text;html=1;align=center;verticalAlign=middle;resizable=0;points=[];autosize=1;strokeColor=none;fillColor=none;fontSize=18;" parent="1" vertex="1">
          <mxGeometry x="206" y="98" width="70" height="30" as="geometry" />
        </mxCell>
        <mxCell id="t8eUcsItaZwYu466m45F-2" value="Legenda" style="text;html=1;align=center;verticalAlign=middle;resizable=0;points=[];autosize=1;strokeColor=none;fillColor=none;fontSize=18;" parent="1" vertex="1">
          <mxGeometry x="65" y="30" width="90" height="30" as="geometry" />
        </mxCell>
        <mxCell id="t8eUcsItaZwYu466m45F-3" value="Podmiot zewnetrzny" style="text;html=1;align=center;verticalAlign=middle;resizable=0;points=[];autosize=1;strokeColor=none;fillColor=none;fontSize=18;" parent="1" vertex="1">
          <mxGeometry x="206" y="196" width="180" height="30" as="geometry" />
        </mxCell>
        <mxCell id="t8eUcsItaZwYu466m45F-4" value="Baza danych" style="text;html=1;align=center;verticalAlign=middle;resizable=0;points=[];autosize=1;strokeColor=none;fillColor=none;fontSize=18;" parent="1" vertex="1">
          <mxGeometry x="209" y="280" width="132" height="36" as="geometry" />
        </mxCell>
        <mxCell id="t8eUcsItaZwYu466m45F-5" value="" style="endArrow=none;html=1;rounded=0;" parent="1" edge="1">
          <mxGeometry width="50" height="50" relative="1" as="geometry">
            <mxPoint x="62" y="267.83000000000004" as="sourcePoint" />
            <mxPoint x="158" y="267.83000000000004" as="targetPoint" />
          </mxGeometry>
        </mxCell>
        <mxCell id="t8eUcsItaZwYu466m45F-6" value="" style="endArrow=none;html=1;rounded=0;" parent="1" edge="1">
          <mxGeometry width="50" height="50" relative="1" as="geometry">
            <mxPoint x="62" y="277.66" as="sourcePoint" />
            <mxPoint x="158" y="277.83000000000004" as="targetPoint" />
          </mxGeometry>
        </mxCell>
        <mxCell id="t8eUcsItaZwYu466m45F-7" value="" style="endArrow=none;html=1;rounded=0;" parent="1" edge="1">
          <mxGeometry width="50" height="50" relative="1" as="geometry">
            <mxPoint x="62" y="307.6" as="sourcePoint" />
            <mxPoint x="158" y="307.6" as="targetPoint" />
          </mxGeometry>
        </mxCell>
        <mxCell id="t8eUcsItaZwYu466m45F-8" value="" style="endArrow=none;html=1;rounded=0;" parent="1" edge="1">
          <mxGeometry width="50" height="50" relative="1" as="geometry">
            <mxPoint x="62" y="317.43000000000006" as="sourcePoint" />
            <mxPoint x="158" y="317.6" as="targetPoint" />
          </mxGeometry>
        </mxCell>
        <mxCell id="t8eUcsItaZwYu466m45F-9" value="" style="rounded=0;whiteSpace=wrap;html=1;" parent="1" vertex="1">
          <mxGeometry x="50" y="181" width="120" height="60" as="geometry" />
        </mxCell>
        <mxCell id="t8eUcsItaZwYu466m45F-10" value="" style="ellipse;whiteSpace=wrap;html=1;aspect=fixed;" parent="1" vertex="1">
          <mxGeometry x="70" y="73" width="80" height="80" as="geometry" />
        </mxCell>
        <mxCell id="t8eUcsItaZwYu466m45F-11" value="Diagram kontekstowy" style="text;html=1;align=center;verticalAlign=middle;resizable=0;points=[];autosize=1;strokeColor=none;fillColor=none;fontSize=22;" parent="1" vertex="1">
          <mxGeometry x="680.5" y="56" width="230" height="30" as="geometry" />
        </mxCell>
        <mxCell id="t8eUcsItaZwYu466m45F-12" value="Restauracja" style="rounded=0;whiteSpace=wrap;html=1;" parent="1" vertex="1">
          <mxGeometry x="737.5" y="98" width="120" height="60" as="geometry" />
        </mxCell>
        <mxCell id="t8eUcsItaZwYu466m45F-13" value="Administrator" style="rounded=0;whiteSpace=wrap;html=1;" parent="1" vertex="1">
          <mxGeometry x="1006" y="252" width="120" height="60" as="geometry" />
        </mxCell>
        <mxCell id="t8eUcsItaZwYu466m45F-14" value="Klient" style="rounded=0;whiteSpace=wrap;html=1;" parent="1" vertex="1">
          <mxGeometry x="457" y="252" width="120" height="60" as="geometry" />
        </mxCell>
        <mxCell id="t8eUcsItaZwYu466m45F-15" value="" style="endArrow=classic;startArrow=classic;html=1;rounded=0;exitX=1;exitY=0.5;exitDx=0;exitDy=0;" parent="1" source="t8eUcsItaZwYu466m45F-14" target="t8eUcsItaZwYu466m45F-16" edge="1">
          <mxGeometry width="50" height="50" relative="1" as="geometry">
            <mxPoint x="589" y="398" as="sourcePoint" />
            <mxPoint x="555" y="348" as="targetPoint" />
          </mxGeometry>
        </mxCell>
        <mxCell id="t8eUcsItaZwYu466m45F-16" value="Zamawianie&lt;div&gt;w Uber&lt;/div&gt;&lt;div&gt;Eats&lt;/div&gt;" style="ellipse;whiteSpace=wrap;html=1;aspect=fixed;" parent="1" vertex="1">
          <mxGeometry x="755.4999999999995" y="242" width="80" height="80" as="geometry" />
        </mxCell>
        <mxCell id="t8eUcsItaZwYu466m45F-17" value="" style="endArrow=classic;startArrow=classic;html=1;rounded=0;exitX=1;exitY=0.5;exitDx=0;exitDy=0;entryX=0;entryY=0.5;entryDx=0;entryDy=0;" parent="1" source="t8eUcsItaZwYu466m45F-16" target="t8eUcsItaZwYu466m45F-13" edge="1">
          <mxGeometry width="50" height="50" relative="1" as="geometry">
            <mxPoint x="589" y="294" as="sourcePoint" />
            <mxPoint x="768" y="294" as="targetPoint" />
          </mxGeometry>
        </mxCell>
        <mxCell id="t8eUcsItaZwYu466m45F-18" value="" style="endArrow=classic;startArrow=classic;html=1;rounded=0;exitX=0.5;exitY=1;exitDx=0;exitDy=0;" parent="1" source="t8eUcsItaZwYu466m45F-12" target="t8eUcsItaZwYu466m45F-16" edge="1">
          <mxGeometry width="50" height="50" relative="1" as="geometry">
            <mxPoint x="601" y="306" as="sourcePoint" />
            <mxPoint x="780" y="306" as="targetPoint" />
          </mxGeometry>
        </mxCell>
        <mxCell id="t8eUcsItaZwYu466m45F-19" value="decyzje" style="text;html=1;align=center;verticalAlign=middle;whiteSpace=wrap;rounded=0;" parent="1" vertex="1">
          <mxGeometry x="795.5" y="186" width="60" height="30" as="geometry" />
        </mxCell>
        <mxCell id="t8eUcsItaZwYu466m45F-20" value="kontakt" style="text;html=1;align=center;verticalAlign=middle;whiteSpace=wrap;rounded=0;" parent="1" vertex="1">
          <mxGeometry x="637" y="252" width="60" height="30" as="geometry" />
        </mxCell>
        <mxCell id="t8eUcsItaZwYu466m45F-21" value="nadzór" style="text;html=1;align=center;verticalAlign=middle;whiteSpace=wrap;rounded=0;" parent="1" vertex="1">
          <mxGeometry x="889" y="252" width="60" height="30" as="geometry" />
        </mxCell>
        <mxCell id="t8eUcsItaZwYu466m45F-22" value="" style="endArrow=none;html=1;rounded=0;" parent="1" edge="1">
          <mxGeometry width="50" height="50" relative="1" as="geometry">
            <mxPoint x="437" y="454.73" as="sourcePoint" />
            <mxPoint x="533" y="454.73" as="targetPoint" />
          </mxGeometry>
        </mxCell>
        <mxCell id="t8eUcsItaZwYu466m45F-23" value="" style="endArrow=none;html=1;rounded=0;" parent="1" edge="1">
          <mxGeometry width="50" height="50" relative="1" as="geometry">
            <mxPoint x="437" y="464.56000000000006" as="sourcePoint" />
            <mxPoint x="533" y="464.73" as="targetPoint" />
          </mxGeometry>
        </mxCell>
        <mxCell id="t8eUcsItaZwYu466m45F-24" value="" style="endArrow=none;html=1;rounded=0;" parent="1" edge="1">
          <mxGeometry width="50" height="50" relative="1" as="geometry">
            <mxPoint x="437" y="494.5" as="sourcePoint" />
            <mxPoint x="533" y="494.5" as="targetPoint" />
          </mxGeometry>
        </mxCell>
        <mxCell id="t8eUcsItaZwYu466m45F-25" value="" style="endArrow=none;html=1;rounded=0;" parent="1" edge="1">
          <mxGeometry width="50" height="50" relative="1" as="geometry">
            <mxPoint x="437" y="504.33000000000004" as="sourcePoint" />
            <mxPoint x="533" y="504.5" as="targetPoint" />
          </mxGeometry>
        </mxCell>
        <mxCell id="t8eUcsItaZwYu466m45F-26" value="&lt;span style=&quot;color: rgb(0, 0, 0); font-family: Helvetica; font-size: 12px; font-style: normal; font-variant-ligatures: normal; font-variant-caps: normal; font-weight: 400; letter-spacing: normal; orphans: 2; text-align: center; text-indent: 0px; text-transform: none; widows: 2; word-spacing: 0px; -webkit-text-stroke-width: 0px; white-space: normal; background-color: rgb(251, 251, 251); text-decoration-thickness: initial; text-decoration-style: initial; text-decoration-color: initial; display: inline !important; float: none;&quot;&gt;Komentarze&lt;/span&gt;" style="text;whiteSpace=wrap;html=1;" parent="1" vertex="1">
          <mxGeometry x="449" y="466" width="72" height="24" as="geometry" />
        </mxCell>
        <mxCell id="t8eUcsItaZwYu466m45F-27" value="6.Dodawanie&lt;div&gt;komentarzy&lt;/div&gt;" style="ellipse;whiteSpace=wrap;html=1;aspect=fixed;" parent="1" vertex="1">
          <mxGeometry x="445" y="548" width="80" height="80" as="geometry" />
        </mxCell>
        <mxCell id="t8eUcsItaZwYu466m45F-28" value="5.Składanie&lt;div&gt;zamówień&lt;/div&gt;" style="ellipse;whiteSpace=wrap;html=1;aspect=fixed;" parent="1" vertex="1">
          <mxGeometry x="689" y="668" width="80" height="80" as="geometry" />
        </mxCell>
        <mxCell id="t8eUcsItaZwYu466m45F-29" value="3.Obsługa zamównień" style="ellipse;whiteSpace=wrap;html=1;aspect=fixed;" parent="1" vertex="1">
          <mxGeometry x="841" y="776.5" width="80" height="80" as="geometry" />
        </mxCell>
        <mxCell id="t8eUcsItaZwYu466m45F-30" value="1.Logowanie" style="ellipse;whiteSpace=wrap;html=1;aspect=fixed;" parent="1" vertex="1">
          <mxGeometry x="445" y="894" width="80" height="80" as="geometry" />
        </mxCell>
        <mxCell id="t8eUcsItaZwYu466m45F-31" value="2.Zarządzanie&lt;div&gt;kontami&lt;/div&gt;&lt;div&gt;użytkowników&lt;/div&gt;" style="ellipse;whiteSpace=wrap;html=1;aspect=fixed;" parent="1" vertex="1">
          <mxGeometry x="1077" y="1004" width="86" height="86" as="geometry" />
        </mxCell>
        <mxCell id="t8eUcsItaZwYu466m45F-32" value="Klient" style="rounded=0;whiteSpace=wrap;html=1;" parent="1" vertex="1">
          <mxGeometry x="425" y="786" width="120" height="60" as="geometry" />
        </mxCell>
        <mxCell id="t8eUcsItaZwYu466m45F-33" value="Restauracja" style="rounded=0;whiteSpace=wrap;html=1;" parent="1" vertex="1">
          <mxGeometry x="821" y="904" width="120" height="60" as="geometry" />
        </mxCell>
        <mxCell id="t8eUcsItaZwYu466m45F-34" value="Administrator" style="rounded=0;whiteSpace=wrap;html=1;" parent="1" vertex="1">
          <mxGeometry x="1060" y="904" width="120" height="60" as="geometry" />
        </mxCell>
        <mxCell id="t8eUcsItaZwYu466m45F-35" value="" style="endArrow=none;html=1;rounded=0;" parent="1" edge="1">
          <mxGeometry width="50" height="50" relative="1" as="geometry">
            <mxPoint x="964" y="682.6099999999999" as="sourcePoint" />
            <mxPoint x="1060" y="682.6099999999999" as="targetPoint" />
          </mxGeometry>
        </mxCell>
        <mxCell id="t8eUcsItaZwYu466m45F-36" value="" style="endArrow=none;html=1;rounded=0;" parent="1" edge="1">
          <mxGeometry width="50" height="50" relative="1" as="geometry">
            <mxPoint x="964" y="692.4399999999998" as="sourcePoint" />
            <mxPoint x="1060" y="692.6099999999999" as="targetPoint" />
          </mxGeometry>
        </mxCell>
        <mxCell id="t8eUcsItaZwYu466m45F-37" value="" style="endArrow=none;html=1;rounded=0;" parent="1" edge="1">
          <mxGeometry width="50" height="50" relative="1" as="geometry">
            <mxPoint x="964" y="722.3799999999999" as="sourcePoint" />
            <mxPoint x="1060" y="722.3799999999999" as="targetPoint" />
          </mxGeometry>
        </mxCell>
        <mxCell id="t8eUcsItaZwYu466m45F-38" value="" style="endArrow=none;html=1;rounded=0;" parent="1" edge="1">
          <mxGeometry width="50" height="50" relative="1" as="geometry">
            <mxPoint x="964" y="732.21" as="sourcePoint" />
            <mxPoint x="1060" y="732.3799999999999" as="targetPoint" />
          </mxGeometry>
        </mxCell>
        <mxCell id="t8eUcsItaZwYu466m45F-39" value="" style="endArrow=none;html=1;rounded=0;" parent="1" edge="1">
          <mxGeometry width="50" height="50" relative="1" as="geometry">
            <mxPoint x="437" y="1021.22" as="sourcePoint" />
            <mxPoint x="533" y="1021.22" as="targetPoint" />
          </mxGeometry>
        </mxCell>
        <mxCell id="t8eUcsItaZwYu466m45F-40" value="" style="endArrow=none;html=1;rounded=0;" parent="1" edge="1">
          <mxGeometry width="50" height="50" relative="1" as="geometry">
            <mxPoint x="437" y="1031.0500000000002" as="sourcePoint" />
            <mxPoint x="533" y="1031.22" as="targetPoint" />
          </mxGeometry>
        </mxCell>
        <mxCell id="t8eUcsItaZwYu466m45F-41" value="" style="endArrow=none;html=1;rounded=0;" parent="1" edge="1">
          <mxGeometry width="50" height="50" relative="1" as="geometry">
            <mxPoint x="437" y="1060.99" as="sourcePoint" />
            <mxPoint x="533" y="1060.99" as="targetPoint" />
          </mxGeometry>
        </mxCell>
        <mxCell id="t8eUcsItaZwYu466m45F-42" value="" style="endArrow=none;html=1;rounded=0;" parent="1" edge="1">
          <mxGeometry width="50" height="50" relative="1" as="geometry">
            <mxPoint x="437" y="1070.8200000000002" as="sourcePoint" />
            <mxPoint x="533" y="1070.99" as="targetPoint" />
          </mxGeometry>
        </mxCell>
        <mxCell id="t8eUcsItaZwYu466m45F-43" value="" style="endArrow=none;html=1;rounded=0;" parent="1" edge="1">
          <mxGeometry width="50" height="50" relative="1" as="geometry">
            <mxPoint x="957.25" y="515.61" as="sourcePoint" />
            <mxPoint x="1053.25" y="515.61" as="targetPoint" />
          </mxGeometry>
        </mxCell>
        <mxCell id="t8eUcsItaZwYu466m45F-44" value="" style="endArrow=none;html=1;rounded=0;" parent="1" edge="1">
          <mxGeometry width="50" height="50" relative="1" as="geometry">
            <mxPoint x="957.25" y="525.44" as="sourcePoint" />
            <mxPoint x="1053.25" y="525.61" as="targetPoint" />
          </mxGeometry>
        </mxCell>
        <mxCell id="t8eUcsItaZwYu466m45F-45" value="" style="endArrow=none;html=1;rounded=0;" parent="1" edge="1">
          <mxGeometry width="50" height="50" relative="1" as="geometry">
            <mxPoint x="957.25" y="555.38" as="sourcePoint" />
            <mxPoint x="1053.25" y="555.38" as="targetPoint" />
          </mxGeometry>
        </mxCell>
        <mxCell id="t8eUcsItaZwYu466m45F-46" value="" style="endArrow=none;html=1;rounded=0;" parent="1" edge="1">
          <mxGeometry width="50" height="50" relative="1" as="geometry">
            <mxPoint x="957.25" y="565.21" as="sourcePoint" />
            <mxPoint x="1053.25" y="565.38" as="targetPoint" />
          </mxGeometry>
        </mxCell>
        <mxCell id="t8eUcsItaZwYu466m45F-47" value="" style="endArrow=none;html=1;rounded=0;" parent="1" edge="1">
          <mxGeometry width="50" height="50" relative="1" as="geometry">
            <mxPoint x="831" y="678.5" as="sourcePoint" />
            <mxPoint x="927" y="678.5" as="targetPoint" />
          </mxGeometry>
        </mxCell>
        <mxCell id="t8eUcsItaZwYu466m45F-48" value="" style="endArrow=none;html=1;rounded=0;" parent="1" edge="1">
          <mxGeometry width="50" height="50" relative="1" as="geometry">
            <mxPoint x="831" y="688.33" as="sourcePoint" />
            <mxPoint x="927" y="688.5" as="targetPoint" />
          </mxGeometry>
        </mxCell>
        <mxCell id="t8eUcsItaZwYu466m45F-49" value="" style="endArrow=none;html=1;rounded=0;" parent="1" edge="1">
          <mxGeometry width="50" height="50" relative="1" as="geometry">
            <mxPoint x="831" y="718.27" as="sourcePoint" />
            <mxPoint x="927" y="718.27" as="targetPoint" />
          </mxGeometry>
        </mxCell>
        <mxCell id="t8eUcsItaZwYu466m45F-50" value="" style="endArrow=none;html=1;rounded=0;" parent="1" edge="1">
          <mxGeometry width="50" height="50" relative="1" as="geometry">
            <mxPoint x="831" y="728.1" as="sourcePoint" />
            <mxPoint x="927" y="728.27" as="targetPoint" />
          </mxGeometry>
        </mxCell>
        <mxCell id="t8eUcsItaZwYu466m45F-51" value="&lt;span style=&quot;color: rgb(0, 0, 0); font-family: Helvetica; font-size: 12px; font-style: normal; font-variant-ligatures: normal; font-variant-caps: normal; font-weight: 400; letter-spacing: normal; orphans: 2; text-align: center; text-indent: 0px; text-transform: none; widows: 2; word-spacing: 0px; -webkit-text-stroke-width: 0px; white-space: normal; background-color: rgb(251, 251, 251); text-decoration-thickness: initial; text-decoration-style: initial; text-decoration-color: initial; display: inline !important; float: none;&quot;&gt;Zamówienia&amp;nbsp;&lt;/span&gt;" style="text;whiteSpace=wrap;html=1;" parent="1" vertex="1">
          <mxGeometry x="842" y="689.77" width="108" height="36" as="geometry" />
        </mxCell>
        <mxCell id="t8eUcsItaZwYu466m45F-52" value="&lt;span style=&quot;color: rgb(0, 0, 0); font-family: Helvetica; font-size: 12px; font-style: normal; font-variant-ligatures: normal; font-variant-caps: normal; font-weight: 400; letter-spacing: normal; orphans: 2; text-align: center; text-indent: 0px; text-transform: none; widows: 2; word-spacing: 0px; -webkit-text-stroke-width: 0px; white-space: normal; background-color: rgb(251, 251, 251); text-decoration-thickness: initial; text-decoration-style: initial; text-decoration-color: initial; display: inline !important; float: none;&quot;&gt;Potrawy&lt;/span&gt;" style="text;whiteSpace=wrap;html=1;" parent="1" vertex="1">
          <mxGeometry x="976" y="694.61" width="84" height="36" as="geometry" />
        </mxCell>
        <mxCell id="t8eUcsItaZwYu466m45F-53" value="&lt;span style=&quot;color: rgb(0, 0, 0); font-family: Helvetica; font-size: 12px; font-style: normal; font-variant-ligatures: normal; font-variant-caps: normal; font-weight: 400; letter-spacing: normal; orphans: 2; text-align: center; text-indent: 0px; text-transform: none; widows: 2; word-spacing: 0px; -webkit-text-stroke-width: 0px; white-space: normal; background-color: rgb(251, 251, 251); text-decoration-thickness: initial; text-decoration-style: initial; text-decoration-color: initial; display: inline !important; float: none;&quot;&gt;Użytkownicy&lt;/span&gt;" style="text;whiteSpace=wrap;html=1;" parent="1" vertex="1">
          <mxGeometry x="449" y="1031" width="72" height="21" as="geometry" />
        </mxCell>
        <mxCell id="t8eUcsItaZwYu466m45F-54" value="&lt;span style=&quot;color: rgb(0, 0, 0); font-family: Helvetica; font-size: 12px; font-style: normal; font-variant-ligatures: normal; font-variant-caps: normal; font-weight: 400; letter-spacing: normal; orphans: 2; text-align: center; text-indent: 0px; text-transform: none; widows: 2; word-spacing: 0px; -webkit-text-stroke-width: 0px; white-space: normal; background-color: rgb(251, 251, 251); text-decoration-thickness: initial; text-decoration-style: initial; text-decoration-color: initial; display: inline !important; float: none;&quot;&gt;Restauracje&lt;/span&gt;" style="text;whiteSpace=wrap;html=1;" parent="1" vertex="1">
          <mxGeometry x="970.75" y="527.88" width="66.25" height="36" as="geometry" />
        </mxCell>
        <mxCell id="t8eUcsItaZwYu466m45F-55" value="" style="endArrow=none;html=1;rounded=0;" parent="1" edge="1">
          <mxGeometry width="50" height="50" relative="1" as="geometry">
            <mxPoint x="525" y="682.49" as="sourcePoint" />
            <mxPoint x="621" y="682.49" as="targetPoint" />
          </mxGeometry>
        </mxCell>
        <mxCell id="t8eUcsItaZwYu466m45F-56" value="" style="endArrow=none;html=1;rounded=0;" parent="1" edge="1">
          <mxGeometry width="50" height="50" relative="1" as="geometry">
            <mxPoint x="525" y="692.3200000000002" as="sourcePoint" />
            <mxPoint x="621" y="692.49" as="targetPoint" />
          </mxGeometry>
        </mxCell>
        <mxCell id="t8eUcsItaZwYu466m45F-57" value="" style="endArrow=none;html=1;rounded=0;" parent="1" edge="1">
          <mxGeometry width="50" height="50" relative="1" as="geometry">
            <mxPoint x="525" y="722.26" as="sourcePoint" />
            <mxPoint x="621" y="722.26" as="targetPoint" />
          </mxGeometry>
        </mxCell>
        <mxCell id="t8eUcsItaZwYu466m45F-58" value="" style="endArrow=none;html=1;rounded=0;" parent="1" edge="1">
          <mxGeometry width="50" height="50" relative="1" as="geometry">
            <mxPoint x="525" y="732.0900000000001" as="sourcePoint" />
            <mxPoint x="621" y="732.26" as="targetPoint" />
          </mxGeometry>
        </mxCell>
        <mxCell id="t8eUcsItaZwYu466m45F-59" value="&lt;span style=&quot;color: rgb(0, 0, 0); font-family: Helvetica; font-size: 12px; font-style: normal; font-variant-ligatures: normal; font-variant-caps: normal; font-weight: 400; letter-spacing: normal; orphans: 2; text-align: center; text-indent: 0px; text-transform: none; widows: 2; word-spacing: 0px; -webkit-text-stroke-width: 0px; white-space: normal; background-color: rgb(251, 251, 251); text-decoration-thickness: initial; text-decoration-style: initial; text-decoration-color: initial; display: inline !important; float: none;&quot;&gt;Koszyk&lt;/span&gt;" style="text;whiteSpace=wrap;html=1;" parent="1" vertex="1">
          <mxGeometry x="549" y="696.12" width="36" height="36" as="geometry" />
        </mxCell>
        <mxCell id="t8eUcsItaZwYu466m45F-60" value="4.Zarządzanie restauracją" style="ellipse;whiteSpace=wrap;html=1;aspect=fixed;" parent="1" vertex="1">
          <mxGeometry x="1080" y="786" width="80" height="80" as="geometry" />
        </mxCell>
        <mxCell id="t8eUcsItaZwYu466m45F-61" value="" style="endArrow=classic;html=1;rounded=0;exitX=0.5;exitY=0;exitDx=0;exitDy=0;" parent="1" edge="1">
          <mxGeometry width="50" height="50" relative="1" as="geometry">
            <mxPoint x="485" y="552" as="sourcePoint" />
            <mxPoint x="485" y="504" as="targetPoint" />
          </mxGeometry>
        </mxCell>
        <mxCell id="t8eUcsItaZwYu466m45F-62" value="" style="endArrow=classic;html=1;rounded=0;exitX=0.5;exitY=0;exitDx=0;exitDy=0;entryX=0.5;entryY=1;entryDx=0;entryDy=0;" parent="1" source="t8eUcsItaZwYu466m45F-32" target="t8eUcsItaZwYu466m45F-27" edge="1">
          <mxGeometry width="50" height="50" relative="1" as="geometry">
            <mxPoint x="989" y="898" as="sourcePoint" />
            <mxPoint x="1039" y="848" as="targetPoint" />
          </mxGeometry>
        </mxCell>
        <mxCell id="t8eUcsItaZwYu466m45F-63" value="" style="endArrow=classic;html=1;rounded=0;exitX=0.5;exitY=1;exitDx=0;exitDy=0;entryX=0.5;entryY=0;entryDx=0;entryDy=0;" parent="1" source="t8eUcsItaZwYu466m45F-32" target="t8eUcsItaZwYu466m45F-30" edge="1">
          <mxGeometry width="50" height="50" relative="1" as="geometry">
            <mxPoint x="989" y="898" as="sourcePoint" />
            <mxPoint x="1039" y="848" as="targetPoint" />
          </mxGeometry>
        </mxCell>
        <mxCell id="t8eUcsItaZwYu466m45F-64" value="" style="endArrow=classic;html=1;rounded=0;exitX=0;exitY=0.5;exitDx=0;exitDy=0;entryX=1;entryY=0.5;entryDx=0;entryDy=0;" parent="1" source="t8eUcsItaZwYu466m45F-33" target="t8eUcsItaZwYu466m45F-30" edge="1">
          <mxGeometry width="50" height="50" relative="1" as="geometry">
            <mxPoint x="1097" y="898" as="sourcePoint" />
            <mxPoint x="1147" y="848" as="targetPoint" />
            <Array as="points" />
          </mxGeometry>
        </mxCell>
        <mxCell id="t8eUcsItaZwYu466m45F-65" value="" style="endArrow=classic;html=1;rounded=0;entryX=0.5;entryY=1;entryDx=0;entryDy=0;" parent="1" target="t8eUcsItaZwYu466m45F-30" edge="1">
          <mxGeometry width="50" height="50" relative="1" as="geometry">
            <mxPoint x="485" y="1018" as="sourcePoint" />
            <mxPoint x="1147" y="970" as="targetPoint" />
          </mxGeometry>
        </mxCell>
        <mxCell id="t8eUcsItaZwYu466m45F-66" value="" style="endArrow=classic;startArrow=classic;html=1;rounded=0;entryX=0;entryY=0.5;entryDx=0;entryDy=0;" parent="1" target="t8eUcsItaZwYu466m45F-28" edge="1">
          <mxGeometry width="50" height="50" relative="1" as="geometry">
            <mxPoint x="617" y="708" as="sourcePoint" />
            <mxPoint x="1171" y="860" as="targetPoint" />
          </mxGeometry>
        </mxCell>
        <mxCell id="t8eUcsItaZwYu466m45F-67" value="" style="endArrow=classic;startArrow=classic;html=1;rounded=0;exitX=1;exitY=0.5;exitDx=0;exitDy=0;" parent="1" source="t8eUcsItaZwYu466m45F-32" edge="1">
          <mxGeometry width="50" height="50" relative="1" as="geometry">
            <mxPoint x="1121" y="910" as="sourcePoint" />
            <mxPoint x="725" y="752" as="targetPoint" />
            <Array as="points">
              <mxPoint x="725" y="816" />
            </Array>
          </mxGeometry>
        </mxCell>
        <mxCell id="t8eUcsItaZwYu466m45F-68" value="" style="endArrow=classic;startArrow=classic;html=1;rounded=0;exitX=1;exitY=0.5;exitDx=0;exitDy=0;" parent="1" source="t8eUcsItaZwYu466m45F-28" edge="1">
          <mxGeometry width="50" height="50" relative="1" as="geometry">
            <mxPoint x="1121" y="910" as="sourcePoint" />
            <mxPoint x="833" y="707" as="targetPoint" />
          </mxGeometry>
        </mxCell>
        <mxCell id="t8eUcsItaZwYu466m45F-69" value="" style="endArrow=classic;startArrow=classic;html=1;rounded=0;exitX=0.5;exitY=0;exitDx=0;exitDy=0;entryX=0.5;entryY=1;entryDx=0;entryDy=0;" parent="1" source="t8eUcsItaZwYu466m45F-33" target="t8eUcsItaZwYu466m45F-29" edge="1">
          <mxGeometry width="50" height="50" relative="1" as="geometry">
            <mxPoint x="1187" y="1012.5" as="sourcePoint" />
            <mxPoint x="1237" y="962.5" as="targetPoint" />
          </mxGeometry>
        </mxCell>
        <mxCell id="t8eUcsItaZwYu466m45F-70" value="" style="endArrow=classic;startArrow=classic;html=1;rounded=0;exitX=0.362;exitY=1.135;exitDx=0;exitDy=0;exitPerimeter=0;entryX=0.5;entryY=0;entryDx=0;entryDy=0;" parent="1" source="t8eUcsItaZwYu466m45F-51" target="t8eUcsItaZwYu466m45F-29" edge="1">
          <mxGeometry width="50" height="50" relative="1" as="geometry">
            <mxPoint x="1356" y="802.5" as="sourcePoint" />
            <mxPoint x="1406" y="752.5" as="targetPoint" />
          </mxGeometry>
        </mxCell>
        <mxCell id="t8eUcsItaZwYu466m45F-71" value="" style="endArrow=classic;html=1;rounded=0;entryX=0.5;entryY=0;entryDx=0;entryDy=0;" parent="1" target="t8eUcsItaZwYu466m45F-28" edge="1">
          <mxGeometry width="50" height="50" relative="1" as="geometry">
            <mxPoint x="953" y="536" as="sourcePoint" />
            <mxPoint x="1267" y="752" as="targetPoint" />
            <Array as="points">
              <mxPoint x="729" y="536" />
            </Array>
          </mxGeometry>
        </mxCell>
        <mxCell id="t8eUcsItaZwYu466m45F-72" value="" style="endArrow=classic;html=1;rounded=0;" parent="1" edge="1">
          <mxGeometry width="50" height="50" relative="1" as="geometry">
            <mxPoint x="1013" y="680" as="sourcePoint" />
            <mxPoint x="737" y="632" as="targetPoint" />
            <Array as="points">
              <mxPoint x="1013" y="632" />
              <mxPoint x="941" y="632" />
            </Array>
          </mxGeometry>
        </mxCell>
        <mxCell id="t8eUcsItaZwYu466m45F-73" value="" style="endArrow=classic;html=1;rounded=0;entryX=1;entryY=0.5;entryDx=0;entryDy=0;" parent="1" target="t8eUcsItaZwYu466m45F-27" edge="1">
          <mxGeometry width="50" height="50" relative="1" as="geometry">
            <mxPoint x="1001" y="512" as="sourcePoint" />
            <mxPoint x="1291" y="752" as="targetPoint" />
            <Array as="points">
              <mxPoint x="1001" y="464" />
              <mxPoint x="617" y="464" />
              <mxPoint x="617" y="588" />
            </Array>
          </mxGeometry>
        </mxCell>
        <mxCell id="t8eUcsItaZwYu466m45F-74" value="" style="endArrow=classic;html=1;rounded=0;exitX=1;exitY=0.25;exitDx=0;exitDy=0;" parent="1" source="t8eUcsItaZwYu466m45F-52" edge="1">
          <mxGeometry width="50" height="50" relative="1" as="geometry">
            <mxPoint x="1013" y="680" as="sourcePoint" />
            <mxPoint x="809" y="464" as="targetPoint" />
            <Array as="points">
              <mxPoint x="1133" y="704" />
              <mxPoint x="1133" y="416" />
              <mxPoint x="809" y="416" />
            </Array>
          </mxGeometry>
        </mxCell>
        <mxCell id="t8eUcsItaZwYu466m45F-75" value="" style="endArrow=classic;html=1;rounded=0;exitX=1;exitY=0.5;exitDx=0;exitDy=0;" parent="1" source="t8eUcsItaZwYu466m45F-60" edge="1">
          <mxGeometry width="50" height="50" relative="1" as="geometry">
            <mxPoint x="1277" y="742" as="sourcePoint" />
            <mxPoint x="1061" y="536" as="targetPoint" />
            <Array as="points">
              <mxPoint x="1181" y="826" />
              <mxPoint x="1181" y="536" />
            </Array>
          </mxGeometry>
        </mxCell>
        <mxCell id="t8eUcsItaZwYu466m45F-76" value="" style="endArrow=classic;html=1;rounded=0;exitX=0.5;exitY=0;exitDx=0;exitDy=0;entryX=0.5;entryY=1;entryDx=0;entryDy=0;" parent="1" source="t8eUcsItaZwYu466m45F-34" target="t8eUcsItaZwYu466m45F-60" edge="1">
          <mxGeometry width="50" height="50" relative="1" as="geometry">
            <mxPoint x="1770" y="742" as="sourcePoint" />
            <mxPoint x="1820" y="692" as="targetPoint" />
          </mxGeometry>
        </mxCell>
        <mxCell id="t8eUcsItaZwYu466m45F-77" value="" style="endArrow=classic;html=1;rounded=0;entryX=0.5;entryY=0;entryDx=0;entryDy=0;exitX=0.5;exitY=1;exitDx=0;exitDy=0;" parent="1" source="t8eUcsItaZwYu466m45F-34" target="t8eUcsItaZwYu466m45F-31" edge="1">
          <mxGeometry width="50" height="50" relative="1" as="geometry">
            <mxPoint x="1122" y="968" as="sourcePoint" />
            <mxPoint x="1484" y="1040" as="targetPoint" />
          </mxGeometry>
        </mxCell>
        <mxCell id="t8eUcsItaZwYu466m45F-78" value="" style="endArrow=classic;html=1;rounded=0;entryX=0;entryY=0.5;entryDx=0;entryDy=0;" parent="1" target="t8eUcsItaZwYu466m45F-31" edge="1">
          <mxGeometry width="50" height="50" relative="1" as="geometry">
            <mxPoint x="533" y="1047" as="sourcePoint" />
            <mxPoint x="1013" y="1036" as="targetPoint" />
          </mxGeometry>
        </mxCell>
        <mxCell id="t8eUcsItaZwYu466m45F-79" value="" style="endArrow=classic;html=1;rounded=0;exitX=0.5;exitY=1;exitDx=0;exitDy=0;" parent="1" source="t8eUcsItaZwYu466m45F-31" edge="1">
          <mxGeometry width="50" height="50" relative="1" as="geometry">
            <mxPoint x="1505" y="850" as="sourcePoint" />
            <mxPoint x="485" y="1076" as="targetPoint" />
            <Array as="points">
              <mxPoint x="1121" y="1112" />
              <mxPoint x="485" y="1112" />
            </Array>
          </mxGeometry>
        </mxCell>
        <mxCell id="t8eUcsItaZwYu466m45F-80" value="" style="endArrow=classic;startArrow=classic;html=1;rounded=0;exitX=0;exitY=0.5;exitDx=0;exitDy=0;entryX=0.5;entryY=1;entryDx=0;entryDy=0;" parent="1" source="t8eUcsItaZwYu466m45F-60" target="t8eUcsItaZwYu466m45F-52" edge="1">
          <mxGeometry width="50" height="50" relative="1" as="geometry">
            <mxPoint x="1457" y="778" as="sourcePoint" />
            <mxPoint x="1507" y="728" as="targetPoint" />
            <Array as="points">
              <mxPoint x="1018" y="826" />
            </Array>
          </mxGeometry>
        </mxCell>
        <mxCell id="t8eUcsItaZwYu466m45F-81" value="Dane restauracji" style="text;html=1;align=center;verticalAlign=middle;whiteSpace=wrap;rounded=0;" parent="1" vertex="1">
          <mxGeometry x="769" y="461" width="96" height="30" as="geometry" />
        </mxCell>
        <mxCell id="t8eUcsItaZwYu466m45F-82" value="Dane restauracji" style="text;html=1;align=center;verticalAlign=middle;whiteSpace=wrap;rounded=0;" parent="1" vertex="1">
          <mxGeometry x="752" y="534" width="96" height="30" as="geometry" />
        </mxCell>
        <mxCell id="t8eUcsItaZwYu466m45F-83" value="Dane potrawy" style="text;html=1;align=center;verticalAlign=middle;whiteSpace=wrap;rounded=0;" parent="1" vertex="1">
          <mxGeometry x="833" y="604" width="96" height="30" as="geometry" />
        </mxCell>
        <mxCell id="t8eUcsItaZwYu466m45F-84" value="Dane&amp;nbsp;&lt;span style=&quot;background-color: initial;&quot;&gt;zamównienia&lt;/span&gt;" style="text;html=1;align=center;verticalAlign=middle;whiteSpace=wrap;rounded=0;" parent="1" vertex="1">
          <mxGeometry x="790" y="742" width="72" height="30" as="geometry" />
        </mxCell>
        <mxCell id="t8eUcsItaZwYu466m45F-85" value="Dane&amp;nbsp;&lt;span style=&quot;background-color: initial;&quot;&gt;restauracji&lt;/span&gt;" style="text;html=1;align=center;verticalAlign=middle;whiteSpace=wrap;rounded=0;" parent="1" vertex="1">
          <mxGeometry x="788" y="866" width="85" height="30" as="geometry" />
        </mxCell>
        <mxCell id="t8eUcsItaZwYu466m45F-86" value="Zamówienie&lt;div&gt;klienta&lt;/div&gt;" style="text;html=1;align=center;verticalAlign=middle;whiteSpace=wrap;rounded=0;" parent="1" vertex="1">
          <mxGeometry x="629" y="673" width="60" height="30" as="geometry" />
        </mxCell>
        <mxCell id="t8eUcsItaZwYu466m45F-87" value="Dane&lt;div&gt;użytkownika&lt;/div&gt;" style="text;html=1;align=center;verticalAlign=middle;whiteSpace=wrap;rounded=0;" parent="1" vertex="1">
          <mxGeometry x="416" y="699.12" width="60" height="30" as="geometry" />
        </mxCell>
        <mxCell id="t8eUcsItaZwYu466m45F-88" value="Dane zamówienia" style="text;html=1;align=center;verticalAlign=middle;whiteSpace=wrap;rounded=0;" parent="1" vertex="1">
          <mxGeometry x="593" y="788" width="108" height="30" as="geometry" />
        </mxCell>
        <mxCell id="t8eUcsItaZwYu466m45F-89" value="Dane&lt;div&gt;użytkownika&lt;/div&gt;" style="text;html=1;align=center;verticalAlign=middle;whiteSpace=wrap;rounded=0;" parent="1" vertex="1">
          <mxGeometry x="374" y="985" width="132" height="30" as="geometry" />
        </mxCell>
        <mxCell id="t8eUcsItaZwYu466m45F-90" value="Dane użytkownika" style="text;html=1;align=center;verticalAlign=middle;whiteSpace=wrap;rounded=0;" parent="1" vertex="1">
          <mxGeometry x="728" y="1018" width="132" height="30" as="geometry" />
        </mxCell>
        <mxCell id="t8eUcsItaZwYu466m45F-91" value="Dane użytkownika" style="text;html=1;align=center;verticalAlign=middle;whiteSpace=wrap;rounded=0;" parent="1" vertex="1">
          <mxGeometry x="728" y="1110" width="132" height="30" as="geometry" />
        </mxCell>
        <mxCell id="t8eUcsItaZwYu466m45F-92" value="Dane użytkowników" style="text;html=1;align=center;verticalAlign=middle;whiteSpace=wrap;rounded=0;" parent="1" vertex="1">
          <mxGeometry x="994" y="974" width="132" height="30" as="geometry" />
        </mxCell>
        <mxCell id="t8eUcsItaZwYu466m45F-93" value="Dane restauracji" style="text;html=1;align=center;verticalAlign=middle;whiteSpace=wrap;rounded=0;" parent="1" vertex="1">
          <mxGeometry x="1001" y="870" width="132" height="30" as="geometry" />
        </mxCell>
        <mxCell id="t8eUcsItaZwYu466m45F-94" value="Dane&lt;div&gt;restauracji&lt;/div&gt;" style="text;html=1;align=center;verticalAlign=middle;whiteSpace=wrap;rounded=0;" parent="1" vertex="1">
          <mxGeometry x="1152" y="654" width="132" height="30" as="geometry" />
        </mxCell>
        <mxCell id="t8eUcsItaZwYu466m45F-95" value="Dane potrawy" style="text;html=1;align=center;verticalAlign=middle;whiteSpace=wrap;rounded=0;" parent="1" vertex="1">
          <mxGeometry x="1014" y="756" width="96" height="30" as="geometry" />
        </mxCell>
        <mxCell id="t8eUcsItaZwYu466m45F-96" value="Dane&lt;div&gt;użytkownika&lt;/div&gt;" style="text;html=1;align=center;verticalAlign=middle;whiteSpace=wrap;rounded=0;" parent="1" vertex="1">
          <mxGeometry x="376" y="857" width="132" height="30" as="geometry" />
        </mxCell>
        <mxCell id="t8eUcsItaZwYu466m45F-97" value="Dane&amp;nbsp;&lt;span style=&quot;background-color: initial;&quot;&gt;restauracji&lt;/span&gt;" style="text;html=1;align=center;verticalAlign=middle;whiteSpace=wrap;rounded=0;" parent="1" vertex="1">
          <mxGeometry x="629" y="908" width="85" height="30" as="geometry" />
        </mxCell>
        <mxCell id="t8eUcsItaZwYu466m45F-98" value="" style="endArrow=none;html=1;rounded=0;" parent="1" edge="1">
          <mxGeometry width="50" height="50" relative="1" as="geometry">
            <mxPoint x="10" y="350" as="sourcePoint" />
            <mxPoint x="10" y="10" as="targetPoint" />
          </mxGeometry>
        </mxCell>
        <mxCell id="t8eUcsItaZwYu466m45F-99" value="" style="endArrow=none;html=1;rounded=0;" parent="1" edge="1">
          <mxGeometry width="50" height="50" relative="1" as="geometry">
            <mxPoint x="390" y="350" as="sourcePoint" />
            <mxPoint x="390" y="10" as="targetPoint" />
          </mxGeometry>
        </mxCell>
        <mxCell id="t8eUcsItaZwYu466m45F-100" value="" style="endArrow=none;html=1;rounded=0;" parent="1" edge="1">
          <mxGeometry width="50" height="50" relative="1" as="geometry">
            <mxPoint x="390" y="10" as="sourcePoint" />
            <mxPoint x="10" y="10" as="targetPoint" />
          </mxGeometry>
        </mxCell>
        <mxCell id="t8eUcsItaZwYu466m45F-101" value="" style="endArrow=none;html=1;rounded=0;" parent="1" edge="1">
          <mxGeometry width="50" height="50" relative="1" as="geometry">
            <mxPoint x="10" y="350" as="sourcePoint" />
            <mxPoint x="390" y="350" as="targetPoint" />
          </mxGeometry>
        </mxCell>
        <mxCell id="t8eUcsItaZwYu466m45F-103" value="Diagram 0" style="text;html=1;align=center;verticalAlign=middle;resizable=0;points=[];autosize=1;strokeColor=none;fillColor=none;fontSize=22;" parent="1" vertex="1">
          <mxGeometry x="735.5" y="351" width="120" height="40" as="geometry" />
        </mxCell>
        <mxCell id="t8eUcsItaZwYu466m45F-104" value="Logowanie" style="text;html=1;align=center;verticalAlign=middle;resizable=0;points=[];autosize=1;strokeColor=none;fillColor=none;fontSize=22;" parent="1" vertex="1">
          <mxGeometry x="732.5" y="1180" width="130" height="40" as="geometry" />
        </mxCell>
        <mxCell id="t8eUcsItaZwYu466m45F-105" value="Klient" style="rounded=0;whiteSpace=wrap;html=1;" parent="1" vertex="1">
          <mxGeometry x="708" y="1270" width="120" height="60" as="geometry" />
        </mxCell>
        <mxCell id="t8eUcsItaZwYu466m45F-106" value="1.2 Zalogowanie się do konta" style="ellipse;whiteSpace=wrap;html=1;aspect=fixed;" parent="1" vertex="1">
          <mxGeometry x="848" y="1400" width="80" height="80" as="geometry" />
        </mxCell>
        <mxCell id="t8eUcsItaZwYu466m45F-107" value="1.1 Założenie konta" style="ellipse;whiteSpace=wrap;html=1;aspect=fixed;" parent="1" vertex="1">
          <mxGeometry x="728" y="1400" width="80" height="80" as="geometry" />
        </mxCell>
        <mxCell id="t8eUcsItaZwYu466m45F-108" value="1.4 Aktywacja konta" style="ellipse;whiteSpace=wrap;html=1;aspect=fixed;" parent="1" vertex="1">
          <mxGeometry x="505" y="1400" width="80" height="80" as="geometry" />
        </mxCell>
        <mxCell id="t8eUcsItaZwYu466m45F-109" value="1.3 Wysyłanie wiadomości aktywacyjnej" style="ellipse;whiteSpace=wrap;html=1;aspect=fixed;" parent="1" vertex="1">
          <mxGeometry x="976" y="1400" width="80" height="80" as="geometry" />
        </mxCell>
        <mxCell id="t8eUcsItaZwYu466m45F-110" value="" style="endArrow=none;html=1;rounded=0;" parent="1" edge="1">
          <mxGeometry width="50" height="50" relative="1" as="geometry">
            <mxPoint x="629" y="1555" as="sourcePoint" />
            <mxPoint x="725" y="1555" as="targetPoint" />
          </mxGeometry>
        </mxCell>
        <mxCell id="t8eUcsItaZwYu466m45F-111" value="" style="endArrow=none;html=1;rounded=0;" parent="1" edge="1">
          <mxGeometry width="50" height="50" relative="1" as="geometry">
            <mxPoint x="629" y="1564.8300000000002" as="sourcePoint" />
            <mxPoint x="725" y="1565" as="targetPoint" />
          </mxGeometry>
        </mxCell>
        <mxCell id="t8eUcsItaZwYu466m45F-112" value="" style="endArrow=none;html=1;rounded=0;" parent="1" edge="1">
          <mxGeometry width="50" height="50" relative="1" as="geometry">
            <mxPoint x="629" y="1594.77" as="sourcePoint" />
            <mxPoint x="725" y="1594.77" as="targetPoint" />
          </mxGeometry>
        </mxCell>
        <mxCell id="t8eUcsItaZwYu466m45F-113" value="" style="endArrow=none;html=1;rounded=0;" parent="1" edge="1">
          <mxGeometry width="50" height="50" relative="1" as="geometry">
            <mxPoint x="629" y="1604.6000000000001" as="sourcePoint" />
            <mxPoint x="725" y="1604.77" as="targetPoint" />
          </mxGeometry>
        </mxCell>
        <mxCell id="t8eUcsItaZwYu466m45F-114" value="&lt;span style=&quot;color: rgb(0, 0, 0); font-family: Helvetica; font-size: 12px; font-style: normal; font-variant-ligatures: normal; font-variant-caps: normal; font-weight: 400; letter-spacing: normal; orphans: 2; text-align: center; text-indent: 0px; text-transform: none; widows: 2; word-spacing: 0px; -webkit-text-stroke-width: 0px; white-space: normal; background-color: rgb(251, 251, 251); text-decoration-thickness: initial; text-decoration-style: initial; text-decoration-color: initial; display: inline !important; float: none;&quot;&gt;Użytkownicy&lt;/span&gt;" style="text;whiteSpace=wrap;html=1;" parent="1" vertex="1">
          <mxGeometry x="641" y="1564.78" width="72" height="21" as="geometry" />
        </mxCell>
        <mxCell id="t8eUcsItaZwYu466m45F-115" value="" style="endArrow=classic;html=1;rounded=0;entryX=0.5;entryY=1;entryDx=0;entryDy=0;" parent="1" target="t8eUcsItaZwYu466m45F-108" edge="1">
          <mxGeometry width="50" height="50" relative="1" as="geometry">
            <mxPoint x="630" y="1580" as="sourcePoint" />
            <mxPoint x="780" y="1360" as="targetPoint" />
            <Array as="points">
              <mxPoint x="545" y="1580" />
            </Array>
          </mxGeometry>
        </mxCell>
        <mxCell id="t8eUcsItaZwYu466m45F-116" value="" style="endArrow=classic;html=1;rounded=0;exitX=1;exitY=0.5;exitDx=0;exitDy=0;" parent="1" source="t8eUcsItaZwYu466m45F-108" edge="1">
          <mxGeometry width="50" height="50" relative="1" as="geometry">
            <mxPoint x="730" y="1410" as="sourcePoint" />
            <mxPoint x="660" y="1550" as="targetPoint" />
            <Array as="points">
              <mxPoint x="660" y="1440" />
            </Array>
          </mxGeometry>
        </mxCell>
        <mxCell id="t8eUcsItaZwYu466m45F-117" value="" style="endArrow=classic;html=1;rounded=0;exitX=0;exitY=0.5;exitDx=0;exitDy=0;" parent="1" source="t8eUcsItaZwYu466m45F-107" edge="1">
          <mxGeometry width="50" height="50" relative="1" as="geometry">
            <mxPoint x="730" y="1410" as="sourcePoint" />
            <mxPoint x="700" y="1550" as="targetPoint" />
            <Array as="points">
              <mxPoint x="700" y="1440" />
            </Array>
          </mxGeometry>
        </mxCell>
        <mxCell id="t8eUcsItaZwYu466m45F-118" value="" style="endArrow=classic;html=1;rounded=0;exitX=0.5;exitY=1;exitDx=0;exitDy=0;" parent="1" source="t8eUcsItaZwYu466m45F-106" edge="1">
          <mxGeometry width="50" height="50" relative="1" as="geometry">
            <mxPoint x="730" y="1410" as="sourcePoint" />
            <mxPoint x="730" y="1580" as="targetPoint" />
            <Array as="points">
              <mxPoint x="888" y="1580" />
            </Array>
          </mxGeometry>
        </mxCell>
        <mxCell id="t8eUcsItaZwYu466m45F-119" value="" style="endArrow=classic;html=1;rounded=0;exitX=0.5;exitY=1;exitDx=0;exitDy=0;" parent="1" source="t8eUcsItaZwYu466m45F-109" edge="1">
          <mxGeometry width="50" height="50" relative="1" as="geometry">
            <mxPoint x="730" y="1410" as="sourcePoint" />
            <mxPoint x="670" y="1610" as="targetPoint" />
            <Array as="points">
              <mxPoint x="1016" y="1650" />
              <mxPoint x="670" y="1650" />
            </Array>
          </mxGeometry>
        </mxCell>
        <mxCell id="t8eUcsItaZwYu466m45F-120" value="" style="endArrow=classic;html=1;rounded=0;exitX=0;exitY=0.5;exitDx=0;exitDy=0;entryX=0.5;entryY=0;entryDx=0;entryDy=0;" parent="1" source="t8eUcsItaZwYu466m45F-105" target="t8eUcsItaZwYu466m45F-108" edge="1">
          <mxGeometry width="50" height="50" relative="1" as="geometry">
            <mxPoint x="730" y="1410" as="sourcePoint" />
            <mxPoint x="780" y="1360" as="targetPoint" />
            <Array as="points">
              <mxPoint x="545" y="1300" />
            </Array>
          </mxGeometry>
        </mxCell>
        <mxCell id="t8eUcsItaZwYu466m45F-121" value="" style="endArrow=classic;html=1;rounded=0;exitX=0.5;exitY=1;exitDx=0;exitDy=0;entryX=0.5;entryY=0;entryDx=0;entryDy=0;" parent="1" source="t8eUcsItaZwYu466m45F-105" target="t8eUcsItaZwYu466m45F-107" edge="1">
          <mxGeometry width="50" height="50" relative="1" as="geometry">
            <mxPoint x="730" y="1410" as="sourcePoint" />
            <mxPoint x="780" y="1360" as="targetPoint" />
          </mxGeometry>
        </mxCell>
        <mxCell id="t8eUcsItaZwYu466m45F-123" value="" style="endArrow=classic;html=1;rounded=0;exitX=1;exitY=0.5;exitDx=0;exitDy=0;entryX=0.5;entryY=0;entryDx=0;entryDy=0;" parent="1" source="t8eUcsItaZwYu466m45F-105" target="t8eUcsItaZwYu466m45F-106" edge="1">
          <mxGeometry width="50" height="50" relative="1" as="geometry">
            <mxPoint x="730" y="1410" as="sourcePoint" />
            <mxPoint x="780" y="1360" as="targetPoint" />
            <Array as="points">
              <mxPoint x="890" y="1300" />
            </Array>
          </mxGeometry>
        </mxCell>
        <mxCell id="t8eUcsItaZwYu466m45F-124" value="" style="endArrow=classic;html=1;rounded=0;exitX=0.5;exitY=0;exitDx=0;exitDy=0;entryX=0.5;entryY=0;entryDx=0;entryDy=0;" parent="1" source="t8eUcsItaZwYu466m45F-109" target="t8eUcsItaZwYu466m45F-105" edge="1">
          <mxGeometry width="50" height="50" relative="1" as="geometry">
            <mxPoint x="730" y="1410" as="sourcePoint" />
            <mxPoint x="780" y="1360" as="targetPoint" />
            <Array as="points">
              <mxPoint x="1016" y="1240" />
              <mxPoint x="768" y="1240" />
            </Array>
          </mxGeometry>
        </mxCell>
        <mxCell id="t8eUcsItaZwYu466m45F-125" value="Użytkownik" style="text;html=1;align=center;verticalAlign=middle;whiteSpace=wrap;rounded=0;" parent="1" vertex="1">
          <mxGeometry x="824" y="1624" width="60" height="30" as="geometry" />
        </mxCell>
        <mxCell id="t8eUcsItaZwYu466m45F-126" value="Użytkownik" style="text;html=1;align=center;verticalAlign=middle;whiteSpace=wrap;rounded=0;" parent="1" vertex="1">
          <mxGeometry x="781" y="1552" width="60" height="30" as="geometry" />
        </mxCell>
        <mxCell id="t8eUcsItaZwYu466m45F-127" value="Użytkownik" style="text;html=1;align=center;verticalAlign=middle;whiteSpace=wrap;rounded=0;" parent="1" vertex="1">
          <mxGeometry x="705" y="1484" width="60" height="30" as="geometry" />
        </mxCell>
        <mxCell id="t8eUcsItaZwYu466m45F-128" value="Użytkownik" style="text;html=1;align=center;verticalAlign=middle;whiteSpace=wrap;rounded=0;" parent="1" vertex="1">
          <mxGeometry x="549" y="1519" width="60" height="30" as="geometry" />
        </mxCell>
        <mxCell id="t8eUcsItaZwYu466m45F-129" value="id_użytkownika" style="text;html=1;align=center;verticalAlign=middle;whiteSpace=wrap;rounded=0;" parent="1" vertex="1">
          <mxGeometry x="613" y="1270" width="60" height="30" as="geometry" />
        </mxCell>
        <mxCell id="t8eUcsItaZwYu466m45F-131" value="id_użytkownika" style="text;html=1;align=center;verticalAlign=middle;whiteSpace=wrap;rounded=0;" parent="1" vertex="1">
          <mxGeometry x="887" y="1213" width="60" height="30" as="geometry" />
        </mxCell>
        <mxCell id="t8eUcsItaZwYu466m45F-132" value="id_użytkownika" style="text;html=1;align=center;verticalAlign=middle;whiteSpace=wrap;rounded=0;" parent="1" vertex="1">
          <mxGeometry x="905.5" y="1320" width="60" height="30" as="geometry" />
        </mxCell>
        <mxCell id="t8eUcsItaZwYu466m45F-133" value="id_użytkownika" style="text;html=1;align=center;verticalAlign=middle;whiteSpace=wrap;rounded=0;" parent="1" vertex="1">
          <mxGeometry x="599" y="1413" width="60" height="30" as="geometry" />
        </mxCell>
        <mxCell id="t8eUcsItaZwYu466m45F-134" value="Zarządzanie kontami użytkowników" style="text;html=1;align=center;verticalAlign=middle;resizable=0;points=[];autosize=1;strokeColor=none;fillColor=none;fontSize=22;" parent="1" vertex="1">
          <mxGeometry x="610.5" y="1700" width="370" height="40" as="geometry" />
        </mxCell>
        <mxCell id="t8eUcsItaZwYu466m45F-135" value="Administrator" style="rounded=0;whiteSpace=wrap;html=1;" parent="1" vertex="1">
          <mxGeometry x="735.5" y="1770" width="120" height="60" as="geometry" />
        </mxCell>
        <mxCell id="t8eUcsItaZwYu466m45F-136" value="2.1 Dodaj użytkownika" style="ellipse;whiteSpace=wrap;html=1;aspect=fixed;" parent="1" vertex="1">
          <mxGeometry x="657" y="1916" width="80" height="80" as="geometry" />
        </mxCell>
        <mxCell id="t8eUcsItaZwYu466m45F-137" value="2.2 Usuń użytkownika" style="ellipse;whiteSpace=wrap;html=1;aspect=fixed;" parent="1" vertex="1">
          <mxGeometry x="471" y="1916" width="80" height="80" as="geometry" />
        </mxCell>
        <mxCell id="t8eUcsItaZwYu466m45F-138" value="2.3 Dodaj restauracje" style="ellipse;whiteSpace=wrap;html=1;aspect=fixed;" parent="1" vertex="1">
          <mxGeometry x="859" y="1916" width="80" height="80" as="geometry" />
        </mxCell>
        <mxCell id="t8eUcsItaZwYu466m45F-139" value="2.4 Usuń restauracje" style="ellipse;whiteSpace=wrap;html=1;aspect=fixed;" parent="1" vertex="1">
          <mxGeometry x="1051" y="1916" width="80" height="80" as="geometry" />
        </mxCell>
        <mxCell id="t8eUcsItaZwYu466m45F-140" value="" style="endArrow=none;html=1;rounded=0;" parent="1" edge="1">
          <mxGeometry width="50" height="50" relative="1" as="geometry">
            <mxPoint x="555.5" y="2064" as="sourcePoint" />
            <mxPoint x="651.5" y="2064" as="targetPoint" />
          </mxGeometry>
        </mxCell>
        <mxCell id="t8eUcsItaZwYu466m45F-141" value="" style="endArrow=none;html=1;rounded=0;" parent="1" edge="1">
          <mxGeometry width="50" height="50" relative="1" as="geometry">
            <mxPoint x="555.5" y="2073.83" as="sourcePoint" />
            <mxPoint x="651.5" y="2074" as="targetPoint" />
          </mxGeometry>
        </mxCell>
        <mxCell id="t8eUcsItaZwYu466m45F-142" value="" style="endArrow=none;html=1;rounded=0;" parent="1" edge="1">
          <mxGeometry width="50" height="50" relative="1" as="geometry">
            <mxPoint x="555.5" y="2103.77" as="sourcePoint" />
            <mxPoint x="651.5" y="2103.77" as="targetPoint" />
          </mxGeometry>
        </mxCell>
        <mxCell id="t8eUcsItaZwYu466m45F-143" value="" style="endArrow=none;html=1;rounded=0;" parent="1" edge="1">
          <mxGeometry width="50" height="50" relative="1" as="geometry">
            <mxPoint x="555.5" y="2113.6000000000004" as="sourcePoint" />
            <mxPoint x="651.5" y="2113.77" as="targetPoint" />
          </mxGeometry>
        </mxCell>
        <mxCell id="t8eUcsItaZwYu466m45F-144" value="&lt;span style=&quot;color: rgb(0, 0, 0); font-family: Helvetica; font-size: 12px; font-style: normal; font-variant-ligatures: normal; font-variant-caps: normal; font-weight: 400; letter-spacing: normal; orphans: 2; text-align: center; text-indent: 0px; text-transform: none; widows: 2; word-spacing: 0px; -webkit-text-stroke-width: 0px; white-space: normal; background-color: rgb(251, 251, 251); text-decoration-thickness: initial; text-decoration-style: initial; text-decoration-color: initial; display: inline !important; float: none;&quot;&gt;Użytkownicy&lt;/span&gt;" style="text;whiteSpace=wrap;html=1;" parent="1" vertex="1">
          <mxGeometry x="567.5" y="2073.7799999999997" width="72" height="21" as="geometry" />
        </mxCell>
        <mxCell id="t8eUcsItaZwYu466m45F-145" value="" style="endArrow=none;html=1;rounded=0;" parent="1" edge="1">
          <mxGeometry width="50" height="50" relative="1" as="geometry">
            <mxPoint x="943" y="2059.03" as="sourcePoint" />
            <mxPoint x="1039" y="2059.03" as="targetPoint" />
          </mxGeometry>
        </mxCell>
        <mxCell id="t8eUcsItaZwYu466m45F-146" value="" style="endArrow=none;html=1;rounded=0;" parent="1" edge="1">
          <mxGeometry width="50" height="50" relative="1" as="geometry">
            <mxPoint x="943" y="2068.86" as="sourcePoint" />
            <mxPoint x="1039" y="2069.03" as="targetPoint" />
          </mxGeometry>
        </mxCell>
        <mxCell id="t8eUcsItaZwYu466m45F-147" value="" style="endArrow=none;html=1;rounded=0;" parent="1" edge="1">
          <mxGeometry width="50" height="50" relative="1" as="geometry">
            <mxPoint x="943" y="2098.8" as="sourcePoint" />
            <mxPoint x="1039" y="2098.8" as="targetPoint" />
          </mxGeometry>
        </mxCell>
        <mxCell id="t8eUcsItaZwYu466m45F-148" value="" style="endArrow=none;html=1;rounded=0;" parent="1" edge="1">
          <mxGeometry width="50" height="50" relative="1" as="geometry">
            <mxPoint x="943" y="2108.63" as="sourcePoint" />
            <mxPoint x="1039" y="2108.8" as="targetPoint" />
          </mxGeometry>
        </mxCell>
        <mxCell id="t8eUcsItaZwYu466m45F-149" value="&lt;span style=&quot;color: rgb(0, 0, 0); font-family: Helvetica; font-size: 12px; font-style: normal; font-variant-ligatures: normal; font-variant-caps: normal; font-weight: 400; letter-spacing: normal; orphans: 2; text-align: center; text-indent: 0px; text-transform: none; widows: 2; word-spacing: 0px; -webkit-text-stroke-width: 0px; white-space: normal; background-color: rgb(251, 251, 251); text-decoration-thickness: initial; text-decoration-style: initial; text-decoration-color: initial; display: inline !important; float: none;&quot;&gt;Restauracje&lt;/span&gt;" style="text;whiteSpace=wrap;html=1;" parent="1" vertex="1">
          <mxGeometry x="956.5" y="2071.3" width="66.25" height="36" as="geometry" />
        </mxCell>
        <mxCell id="t8eUcsItaZwYu466m45F-151" value="" style="endArrow=classic;html=1;rounded=0;exitX=0.5;exitY=1;exitDx=0;exitDy=0;" parent="1" source="t8eUcsItaZwYu466m45F-139" edge="1">
          <mxGeometry width="50" height="50" relative="1" as="geometry">
            <mxPoint x="730" y="2116" as="sourcePoint" />
            <mxPoint x="1040" y="2086" as="targetPoint" />
            <Array as="points">
              <mxPoint x="1090" y="2086" />
            </Array>
          </mxGeometry>
        </mxCell>
        <mxCell id="t8eUcsItaZwYu466m45F-152" value="" style="endArrow=classic;html=1;rounded=0;exitX=0.5;exitY=1;exitDx=0;exitDy=0;" parent="1" source="t8eUcsItaZwYu466m45F-138" edge="1">
          <mxGeometry width="50" height="50" relative="1" as="geometry">
            <mxPoint x="730" y="2116" as="sourcePoint" />
            <mxPoint x="940" y="2086" as="targetPoint" />
            <Array as="points">
              <mxPoint x="898" y="2086" />
            </Array>
          </mxGeometry>
        </mxCell>
        <mxCell id="t8eUcsItaZwYu466m45F-153" value="" style="endArrow=classic;html=1;rounded=0;exitX=0.5;exitY=1;exitDx=0;exitDy=0;" parent="1" source="t8eUcsItaZwYu466m45F-136" edge="1">
          <mxGeometry width="50" height="50" relative="1" as="geometry">
            <mxPoint x="770" y="2106" as="sourcePoint" />
            <mxPoint x="650" y="2086" as="targetPoint" />
            <Array as="points">
              <mxPoint x="697" y="2086" />
            </Array>
          </mxGeometry>
        </mxCell>
        <mxCell id="t8eUcsItaZwYu466m45F-154" value="" style="endArrow=classic;html=1;rounded=0;exitX=0.5;exitY=1;exitDx=0;exitDy=0;" parent="1" source="t8eUcsItaZwYu466m45F-137" edge="1">
          <mxGeometry width="50" height="50" relative="1" as="geometry">
            <mxPoint x="770" y="2106" as="sourcePoint" />
            <mxPoint x="550" y="2086" as="targetPoint" />
            <Array as="points">
              <mxPoint x="510" y="2086" />
            </Array>
          </mxGeometry>
        </mxCell>
        <mxCell id="t8eUcsItaZwYu466m45F-157" value="" style="endArrow=classic;html=1;rounded=0;entryX=0.5;entryY=1;entryDx=0;entryDy=0;" parent="1" target="t8eUcsItaZwYu466m45F-135" edge="1">
          <mxGeometry width="50" height="50" relative="1" as="geometry">
            <mxPoint x="796" y="1880" as="sourcePoint" />
            <mxPoint x="820" y="1880" as="targetPoint" />
          </mxGeometry>
        </mxCell>
        <mxCell id="t8eUcsItaZwYu466m45F-158" value="" style="endArrow=classic;html=1;rounded=0;exitX=1;exitY=0.5;exitDx=0;exitDy=0;entryX=0.5;entryY=0;entryDx=0;entryDy=0;" parent="1" source="t8eUcsItaZwYu466m45F-135" target="t8eUcsItaZwYu466m45F-139" edge="1">
          <mxGeometry width="50" height="50" relative="1" as="geometry">
            <mxPoint x="770" y="1930" as="sourcePoint" />
            <mxPoint x="820" y="1880" as="targetPoint" />
            <Array as="points">
              <mxPoint x="1090" y="1800" />
            </Array>
          </mxGeometry>
        </mxCell>
        <mxCell id="t8eUcsItaZwYu466m45F-159" value="" style="endArrow=classic;html=1;rounded=0;exitX=0;exitY=0.5;exitDx=0;exitDy=0;entryX=0.5;entryY=0;entryDx=0;entryDy=0;" parent="1" source="t8eUcsItaZwYu466m45F-135" target="t8eUcsItaZwYu466m45F-137" edge="1">
          <mxGeometry width="50" height="50" relative="1" as="geometry">
            <mxPoint x="770" y="1930" as="sourcePoint" />
            <mxPoint x="820" y="1880" as="targetPoint" />
            <Array as="points">
              <mxPoint x="511" y="1800" />
            </Array>
          </mxGeometry>
        </mxCell>
        <mxCell id="t8eUcsItaZwYu466m45F-160" value="" style="endArrow=classic;startArrow=classic;html=1;rounded=0;exitX=0.5;exitY=0;exitDx=0;exitDy=0;entryX=0.5;entryY=0;entryDx=0;entryDy=0;" parent="1" source="t8eUcsItaZwYu466m45F-136" target="t8eUcsItaZwYu466m45F-138" edge="1">
          <mxGeometry width="50" height="50" relative="1" as="geometry">
            <mxPoint x="770" y="1930" as="sourcePoint" />
            <mxPoint x="820" y="1880" as="targetPoint" />
            <Array as="points">
              <mxPoint x="697" y="1880" />
              <mxPoint x="899" y="1880" />
            </Array>
          </mxGeometry>
        </mxCell>
        <mxCell id="t8eUcsItaZwYu466m45F-161" value="Obsługa zamównień" style="text;html=1;align=center;verticalAlign=middle;resizable=0;points=[];autosize=1;strokeColor=none;fillColor=none;fontSize=22;" parent="1" vertex="1">
          <mxGeometry x="690" y="2170" width="220" height="40" as="geometry" />
        </mxCell>
        <mxCell id="oRTvZJj7xICdUWiJBsy2-1" value="Restauracja" style="rounded=0;whiteSpace=wrap;html=1;" parent="1" vertex="1">
          <mxGeometry x="737.5" y="2230" width="120" height="60" as="geometry" />
        </mxCell>
        <mxCell id="oRTvZJj7xICdUWiJBsy2-2" value="3.3 Aktualizuj stan zamówienia" style="ellipse;whiteSpace=wrap;html=1;aspect=fixed;" parent="1" vertex="1">
          <mxGeometry x="976" y="2390" width="80" height="80" as="geometry" />
        </mxCell>
        <mxCell id="oRTvZJj7xICdUWiJBsy2-3" value="3.2 Realizuj zamówienie" style="ellipse;whiteSpace=wrap;html=1;aspect=fixed;" parent="1" vertex="1">
          <mxGeometry x="757.5" y="2390" width="80" height="80" as="geometry" />
        </mxCell>
        <mxCell id="oRTvZJj7xICdUWiJBsy2-4" value="3.1 Wyświetl listę zamówień" style="ellipse;whiteSpace=wrap;html=1;aspect=fixed;" parent="1" vertex="1">
          <mxGeometry x="539" y="2390" width="80" height="80" as="geometry" />
        </mxCell>
        <mxCell id="oRTvZJj7xICdUWiJBsy2-13" value="" style="endArrow=none;html=1;rounded=0;" parent="1" edge="1">
          <mxGeometry width="50" height="50" relative="1" as="geometry">
            <mxPoint x="532" y="2560" as="sourcePoint" />
            <mxPoint x="628" y="2560" as="targetPoint" />
          </mxGeometry>
        </mxCell>
        <mxCell id="oRTvZJj7xICdUWiJBsy2-14" value="" style="endArrow=none;html=1;rounded=0;" parent="1" edge="1">
          <mxGeometry width="50" height="50" relative="1" as="geometry">
            <mxPoint x="532" y="2569.83" as="sourcePoint" />
            <mxPoint x="628" y="2570" as="targetPoint" />
          </mxGeometry>
        </mxCell>
        <mxCell id="oRTvZJj7xICdUWiJBsy2-15" value="" style="endArrow=none;html=1;rounded=0;" parent="1" edge="1">
          <mxGeometry width="50" height="50" relative="1" as="geometry">
            <mxPoint x="532" y="2599.77" as="sourcePoint" />
            <mxPoint x="628" y="2599.77" as="targetPoint" />
          </mxGeometry>
        </mxCell>
        <mxCell id="oRTvZJj7xICdUWiJBsy2-16" value="" style="endArrow=none;html=1;rounded=0;" parent="1" edge="1">
          <mxGeometry width="50" height="50" relative="1" as="geometry">
            <mxPoint x="532" y="2609.6" as="sourcePoint" />
            <mxPoint x="628" y="2609.77" as="targetPoint" />
          </mxGeometry>
        </mxCell>
        <mxCell id="oRTvZJj7xICdUWiJBsy2-17" value="&lt;span style=&quot;color: rgb(0, 0, 0); font-family: Helvetica; font-size: 12px; font-style: normal; font-variant-ligatures: normal; font-variant-caps: normal; font-weight: 400; letter-spacing: normal; orphans: 2; text-align: center; text-indent: 0px; text-transform: none; widows: 2; word-spacing: 0px; -webkit-text-stroke-width: 0px; white-space: normal; background-color: rgb(251, 251, 251); text-decoration-thickness: initial; text-decoration-style: initial; text-decoration-color: initial; display: inline !important; float: none;&quot;&gt;Zamówienia&amp;nbsp;&lt;/span&gt;" style="text;whiteSpace=wrap;html=1;" parent="1" vertex="1">
          <mxGeometry x="543" y="2571.27" width="67" height="36" as="geometry" />
        </mxCell>
        <mxCell id="oRTvZJj7xICdUWiJBsy2-18" value="id_użytkownika" style="text;html=1;align=center;verticalAlign=middle;whiteSpace=wrap;rounded=0;" parent="1" vertex="1">
          <mxGeometry x="590" y="1772" width="60" height="30" as="geometry" />
        </mxCell>
        <mxCell id="oRTvZJj7xICdUWiJBsy2-19" value="id_użytkownika" style="text;html=1;align=center;verticalAlign=middle;whiteSpace=wrap;rounded=0;" parent="1" vertex="1">
          <mxGeometry x="528" y="2020" width="60" height="30" as="geometry" />
        </mxCell>
        <mxCell id="oRTvZJj7xICdUWiJBsy2-20" value="id_restauracji" style="text;html=1;align=center;verticalAlign=middle;whiteSpace=wrap;rounded=0;" parent="1" vertex="1">
          <mxGeometry x="955.63" y="1773" width="60" height="30" as="geometry" />
        </mxCell>
        <mxCell id="oRTvZJj7xICdUWiJBsy2-21" value="id_restauracji" style="text;html=1;align=center;verticalAlign=middle;whiteSpace=wrap;rounded=0;" parent="1" vertex="1">
          <mxGeometry x="1022.75" y="2021" width="60" height="30" as="geometry" />
        </mxCell>
        <mxCell id="oRTvZJj7xICdUWiJBsy2-22" value="Dane użytkownika" style="text;html=1;align=center;verticalAlign=middle;whiteSpace=wrap;rounded=0;" parent="1" vertex="1">
          <mxGeometry x="690" y="1854" width="100" height="30" as="geometry" />
        </mxCell>
        <mxCell id="oRTvZJj7xICdUWiJBsy2-23" value="Dane restauracji" style="text;html=1;align=center;verticalAlign=middle;whiteSpace=wrap;rounded=0;" parent="1" vertex="1">
          <mxGeometry x="788" y="1854" width="120" height="30" as="geometry" />
        </mxCell>
        <mxCell id="oRTvZJj7xICdUWiJBsy2-24" value="Restauracja" style="text;html=1;align=center;verticalAlign=middle;whiteSpace=wrap;rounded=0;" parent="1" vertex="1">
          <mxGeometry x="905.5" y="2021" width="60" height="30" as="geometry" />
        </mxCell>
        <mxCell id="oRTvZJj7xICdUWiJBsy2-25" value="Użytkownik" style="text;html=1;align=center;verticalAlign=middle;whiteSpace=wrap;rounded=0;" parent="1" vertex="1">
          <mxGeometry x="630" y="2020" width="60" height="30" as="geometry" />
        </mxCell>
        <mxCell id="oRTvZJj7xICdUWiJBsy2-26" value="" style="endArrow=classic;html=1;rounded=0;exitX=0.5;exitY=1;exitDx=0;exitDy=0;" parent="1" source="oRTvZJj7xICdUWiJBsy2-2" edge="1">
          <mxGeometry width="50" height="50" relative="1" as="geometry">
            <mxPoint x="810" y="2450" as="sourcePoint" />
            <mxPoint x="580" y="2610" as="targetPoint" />
            <Array as="points">
              <mxPoint x="1016" y="2650" />
              <mxPoint x="580" y="2650" />
            </Array>
          </mxGeometry>
        </mxCell>
        <mxCell id="oRTvZJj7xICdUWiJBsy2-27" value="" style="endArrow=classic;html=1;rounded=0;entryX=0.5;entryY=1;entryDx=0;entryDy=0;" parent="1" target="oRTvZJj7xICdUWiJBsy2-3" edge="1">
          <mxGeometry width="50" height="50" relative="1" as="geometry">
            <mxPoint x="630" y="2580" as="sourcePoint" />
            <mxPoint x="860" y="2400" as="targetPoint" />
            <Array as="points">
              <mxPoint x="800" y="2580" />
            </Array>
          </mxGeometry>
        </mxCell>
        <mxCell id="oRTvZJj7xICdUWiJBsy2-29" value="" style="endArrow=classic;html=1;rounded=0;entryX=0.5;entryY=1;entryDx=0;entryDy=0;" parent="1" target="oRTvZJj7xICdUWiJBsy2-4" edge="1">
          <mxGeometry width="50" height="50" relative="1" as="geometry">
            <mxPoint x="580" y="2560" as="sourcePoint" />
            <mxPoint x="860" y="2400" as="targetPoint" />
          </mxGeometry>
        </mxCell>
        <mxCell id="oRTvZJj7xICdUWiJBsy2-30" value="" style="endArrow=classic;html=1;rounded=0;exitX=0;exitY=0.5;exitDx=0;exitDy=0;entryX=0.5;entryY=0;entryDx=0;entryDy=0;" parent="1" source="oRTvZJj7xICdUWiJBsy2-1" target="oRTvZJj7xICdUWiJBsy2-4" edge="1">
          <mxGeometry width="50" height="50" relative="1" as="geometry">
            <mxPoint x="810" y="2450" as="sourcePoint" />
            <mxPoint x="860" y="2400" as="targetPoint" />
            <Array as="points">
              <mxPoint x="580" y="2260" />
            </Array>
          </mxGeometry>
        </mxCell>
        <mxCell id="oRTvZJj7xICdUWiJBsy2-31" value="" style="endArrow=classic;html=1;rounded=0;exitX=0.5;exitY=1;exitDx=0;exitDy=0;entryX=0.5;entryY=0;entryDx=0;entryDy=0;" parent="1" source="oRTvZJj7xICdUWiJBsy2-1" target="oRTvZJj7xICdUWiJBsy2-3" edge="1">
          <mxGeometry width="50" height="50" relative="1" as="geometry">
            <mxPoint x="810" y="2450" as="sourcePoint" />
            <mxPoint x="860" y="2400" as="targetPoint" />
          </mxGeometry>
        </mxCell>
        <mxCell id="oRTvZJj7xICdUWiJBsy2-32" value="" style="endArrow=classic;html=1;rounded=0;exitX=1;exitY=0.5;exitDx=0;exitDy=0;entryX=0.5;entryY=0;entryDx=0;entryDy=0;" parent="1" source="oRTvZJj7xICdUWiJBsy2-1" target="oRTvZJj7xICdUWiJBsy2-2" edge="1">
          <mxGeometry width="50" height="50" relative="1" as="geometry">
            <mxPoint x="810" y="2450" as="sourcePoint" />
            <mxPoint x="860" y="2400" as="targetPoint" />
            <Array as="points">
              <mxPoint x="1016" y="2260" />
            </Array>
          </mxGeometry>
        </mxCell>
        <mxCell id="oRTvZJj7xICdUWiJBsy2-33" value="Zamówienia" style="text;html=1;align=center;verticalAlign=middle;whiteSpace=wrap;rounded=0;" parent="1" vertex="1">
          <mxGeometry x="588" y="2500" width="60" height="30" as="geometry" />
        </mxCell>
        <mxCell id="oRTvZJj7xICdUWiJBsy2-34" value="Zamówienie" style="text;html=1;align=center;verticalAlign=middle;whiteSpace=wrap;rounded=0;" parent="1" vertex="1">
          <mxGeometry x="689" y="2552" width="60" height="30" as="geometry" />
        </mxCell>
        <mxCell id="oRTvZJj7xICdUWiJBsy2-35" value="Zamówienie" style="text;html=1;align=center;verticalAlign=middle;whiteSpace=wrap;rounded=0;" parent="1" vertex="1">
          <mxGeometry x="777.5" y="2622" width="60" height="30" as="geometry" />
        </mxCell>
        <mxCell id="oRTvZJj7xICdUWiJBsy2-36" value="id_zamówienia" style="text;html=1;align=center;verticalAlign=middle;whiteSpace=wrap;rounded=0;" parent="1" vertex="1">
          <mxGeometry x="728" y="2330" width="60" height="30" as="geometry" />
        </mxCell>
        <mxCell id="oRTvZJj7xICdUWiJBsy2-37" value="id_zamówienia&lt;div&gt;stan_zamówienia&lt;/div&gt;" style="text;html=1;align=center;verticalAlign=middle;whiteSpace=wrap;rounded=0;" parent="1" vertex="1">
          <mxGeometry x="905.5" y="2270" width="60" height="30" as="geometry" />
        </mxCell>
        <mxCell id="oRTvZJj7xICdUWiJBsy2-38" value="id_restauracji" style="text;html=1;align=center;verticalAlign=middle;whiteSpace=wrap;rounded=0;" parent="1" vertex="1">
          <mxGeometry x="630" y="2260" width="60" height="30" as="geometry" />
        </mxCell>
        <mxCell id="oRTvZJj7xICdUWiJBsy2-39" value="&lt;font style=&quot;font-size: 36px;&quot;&gt;Uber Eats&lt;/font&gt;" style="text;html=1;align=center;verticalAlign=middle;resizable=0;points=[];autosize=1;strokeColor=none;fillColor=none;fontSize=22;" parent="1" vertex="1">
          <mxGeometry x="710" width="180" height="60" as="geometry" />
        </mxCell>
        <mxCell id="XR5SNI3g1OD4vw3caPpb-1" value="Zarządzanie restauracją" style="text;html=1;align=center;verticalAlign=middle;resizable=0;points=[];autosize=1;strokeColor=none;fillColor=none;fontSize=22;" vertex="1" parent="1">
          <mxGeometry x="677.5" y="2720" width="260" height="40" as="geometry" />
        </mxCell>
        <mxCell id="XR5SNI3g1OD4vw3caPpb-2" value="Restauracja" style="rounded=0;whiteSpace=wrap;html=1;" vertex="1" parent="1">
          <mxGeometry x="632" y="2800" width="120" height="60" as="geometry" />
        </mxCell>
        <mxCell id="XR5SNI3g1OD4vw3caPpb-3" value="Administrator" style="rounded=0;whiteSpace=wrap;html=1;" vertex="1" parent="1">
          <mxGeometry x="1041" y="2800" width="120" height="60" as="geometry" />
        </mxCell>
        <mxCell id="XR5SNI3g1OD4vw3caPpb-4" value="4.4 Edycja potrawy" style="ellipse;whiteSpace=wrap;html=1;aspect=fixed;" vertex="1" parent="1">
          <mxGeometry x="722.5" y="2960" width="80" height="80" as="geometry" />
        </mxCell>
        <mxCell id="XR5SNI3g1OD4vw3caPpb-5" value="4.1 Edycja informacji o restauracji" style="ellipse;whiteSpace=wrap;html=1;aspect=fixed;" vertex="1" parent="1">
          <mxGeometry x="866" y="2960" width="80" height="80" as="geometry" />
        </mxCell>
        <mxCell id="XR5SNI3g1OD4vw3caPpb-6" value="4.3 Usuwanie potrawy" style="ellipse;whiteSpace=wrap;html=1;aspect=fixed;" vertex="1" parent="1">
          <mxGeometry x="552" y="2960" width="80" height="80" as="geometry" />
        </mxCell>
        <mxCell id="XR5SNI3g1OD4vw3caPpb-7" value="4.2 Dodawanie potrawy" style="ellipse;whiteSpace=wrap;html=1;aspect=fixed;" vertex="1" parent="1">
          <mxGeometry x="381" y="2960" width="80" height="80" as="geometry" />
        </mxCell>
        <mxCell id="XR5SNI3g1OD4vw3caPpb-8" value="" style="endArrow=none;html=1;rounded=0;" edge="1" parent="1">
          <mxGeometry width="50" height="50" relative="1" as="geometry">
            <mxPoint x="484" y="3154.97" as="sourcePoint" />
            <mxPoint x="580" y="3154.97" as="targetPoint" />
          </mxGeometry>
        </mxCell>
        <mxCell id="XR5SNI3g1OD4vw3caPpb-9" value="" style="endArrow=none;html=1;rounded=0;" edge="1" parent="1">
          <mxGeometry width="50" height="50" relative="1" as="geometry">
            <mxPoint x="484" y="3164.7999999999997" as="sourcePoint" />
            <mxPoint x="580" y="3164.97" as="targetPoint" />
          </mxGeometry>
        </mxCell>
        <mxCell id="XR5SNI3g1OD4vw3caPpb-10" value="" style="endArrow=none;html=1;rounded=0;" edge="1" parent="1">
          <mxGeometry width="50" height="50" relative="1" as="geometry">
            <mxPoint x="484" y="3194.7399999999993" as="sourcePoint" />
            <mxPoint x="580" y="3194.7399999999993" as="targetPoint" />
          </mxGeometry>
        </mxCell>
        <mxCell id="XR5SNI3g1OD4vw3caPpb-11" value="" style="endArrow=none;html=1;rounded=0;" edge="1" parent="1">
          <mxGeometry width="50" height="50" relative="1" as="geometry">
            <mxPoint x="484" y="3204.5699999999997" as="sourcePoint" />
            <mxPoint x="580" y="3204.7399999999993" as="targetPoint" />
          </mxGeometry>
        </mxCell>
        <mxCell id="XR5SNI3g1OD4vw3caPpb-12" value="&lt;span style=&quot;color: rgb(0, 0, 0); font-family: Helvetica; font-size: 12px; font-style: normal; font-variant-ligatures: normal; font-variant-caps: normal; font-weight: 400; letter-spacing: normal; orphans: 2; text-align: center; text-indent: 0px; text-transform: none; widows: 2; word-spacing: 0px; -webkit-text-stroke-width: 0px; white-space: normal; background-color: rgb(251, 251, 251); text-decoration-thickness: initial; text-decoration-style: initial; text-decoration-color: initial; display: inline !important; float: none;&quot;&gt;Potrawy&lt;/span&gt;" style="text;whiteSpace=wrap;html=1;" vertex="1" parent="1">
          <mxGeometry x="496" y="3166.97" width="61" height="36" as="geometry" />
        </mxCell>
        <mxCell id="XR5SNI3g1OD4vw3caPpb-13" value="" style="endArrow=none;html=1;rounded=0;" edge="1" parent="1">
          <mxGeometry width="50" height="50" relative="1" as="geometry">
            <mxPoint x="860" y="3150" as="sourcePoint" />
            <mxPoint x="956" y="3150" as="targetPoint" />
          </mxGeometry>
        </mxCell>
        <mxCell id="XR5SNI3g1OD4vw3caPpb-14" value="" style="endArrow=none;html=1;rounded=0;" edge="1" parent="1">
          <mxGeometry width="50" height="50" relative="1" as="geometry">
            <mxPoint x="860" y="3159.83" as="sourcePoint" />
            <mxPoint x="956" y="3160" as="targetPoint" />
          </mxGeometry>
        </mxCell>
        <mxCell id="XR5SNI3g1OD4vw3caPpb-15" value="" style="endArrow=none;html=1;rounded=0;" edge="1" parent="1">
          <mxGeometry width="50" height="50" relative="1" as="geometry">
            <mxPoint x="860" y="3189.77" as="sourcePoint" />
            <mxPoint x="956" y="3189.77" as="targetPoint" />
          </mxGeometry>
        </mxCell>
        <mxCell id="XR5SNI3g1OD4vw3caPpb-16" value="" style="endArrow=none;html=1;rounded=0;" edge="1" parent="1">
          <mxGeometry width="50" height="50" relative="1" as="geometry">
            <mxPoint x="860" y="3199.6" as="sourcePoint" />
            <mxPoint x="956" y="3199.77" as="targetPoint" />
          </mxGeometry>
        </mxCell>
        <mxCell id="XR5SNI3g1OD4vw3caPpb-17" value="&lt;span style=&quot;color: rgb(0, 0, 0); font-family: Helvetica; font-size: 12px; font-style: normal; font-variant-ligatures: normal; font-variant-caps: normal; font-weight: 400; letter-spacing: normal; orphans: 2; text-align: center; text-indent: 0px; text-transform: none; widows: 2; word-spacing: 0px; -webkit-text-stroke-width: 0px; white-space: normal; background-color: rgb(251, 251, 251); text-decoration-thickness: initial; text-decoration-style: initial; text-decoration-color: initial; display: inline !important; float: none;&quot;&gt;Restauracje&lt;/span&gt;" style="text;whiteSpace=wrap;html=1;" vertex="1" parent="1">
          <mxGeometry x="873.5" y="3162.27" width="66.25" height="36" as="geometry" />
        </mxCell>
        <mxCell id="XR5SNI3g1OD4vw3caPpb-18" value="" style="endArrow=classic;html=1;rounded=0;exitX=0;exitY=0.5;exitDx=0;exitDy=0;entryX=0.5;entryY=0;entryDx=0;entryDy=0;" edge="1" parent="1" source="XR5SNI3g1OD4vw3caPpb-2" target="XR5SNI3g1OD4vw3caPpb-7">
          <mxGeometry width="50" height="50" relative="1" as="geometry">
            <mxPoint x="847" y="3030" as="sourcePoint" />
            <mxPoint x="897" y="2980" as="targetPoint" />
            <Array as="points">
              <mxPoint x="421" y="2830" />
            </Array>
          </mxGeometry>
        </mxCell>
        <mxCell id="XR5SNI3g1OD4vw3caPpb-19" value="" style="endArrow=classic;html=1;rounded=0;exitX=0.5;exitY=1;exitDx=0;exitDy=0;" edge="1" parent="1" source="XR5SNI3g1OD4vw3caPpb-7">
          <mxGeometry width="50" height="50" relative="1" as="geometry">
            <mxPoint x="847" y="3000" as="sourcePoint" />
            <mxPoint x="487" y="3180" as="targetPoint" />
            <Array as="points">
              <mxPoint x="421" y="3180" />
            </Array>
          </mxGeometry>
        </mxCell>
        <mxCell id="XR5SNI3g1OD4vw3caPpb-20" value="" style="endArrow=classic;html=1;rounded=0;exitX=0.5;exitY=1;exitDx=0;exitDy=0;" edge="1" parent="1" source="XR5SNI3g1OD4vw3caPpb-6">
          <mxGeometry width="50" height="50" relative="1" as="geometry">
            <mxPoint x="847" y="3000" as="sourcePoint" />
            <mxPoint x="537" y="3150" as="targetPoint" />
            <Array as="points">
              <mxPoint x="592" y="3080" />
              <mxPoint x="537" y="3080" />
            </Array>
          </mxGeometry>
        </mxCell>
        <mxCell id="XR5SNI3g1OD4vw3caPpb-21" value="" style="endArrow=classic;startArrow=classic;html=1;rounded=0;entryX=0.5;entryY=1;entryDx=0;entryDy=0;" edge="1" parent="1" target="XR5SNI3g1OD4vw3caPpb-4">
          <mxGeometry width="50" height="50" relative="1" as="geometry">
            <mxPoint x="577" y="3180" as="sourcePoint" />
            <mxPoint x="897" y="2950" as="targetPoint" />
            <Array as="points">
              <mxPoint x="763" y="3180" />
            </Array>
          </mxGeometry>
        </mxCell>
        <mxCell id="XR5SNI3g1OD4vw3caPpb-22" value="" style="endArrow=classic;startArrow=classic;html=1;rounded=0;exitX=0.5;exitY=1;exitDx=0;exitDy=0;" edge="1" parent="1" source="XR5SNI3g1OD4vw3caPpb-5">
          <mxGeometry width="50" height="50" relative="1" as="geometry">
            <mxPoint x="817" y="3000" as="sourcePoint" />
            <mxPoint x="906" y="3150" as="targetPoint" />
          </mxGeometry>
        </mxCell>
        <mxCell id="XR5SNI3g1OD4vw3caPpb-23" value="" style="endArrow=classic;html=1;rounded=0;exitX=0;exitY=0.5;exitDx=0;exitDy=0;entryX=1;entryY=0.5;entryDx=0;entryDy=0;" edge="1" parent="1" source="XR5SNI3g1OD4vw3caPpb-3" target="XR5SNI3g1OD4vw3caPpb-2">
          <mxGeometry width="50" height="50" relative="1" as="geometry">
            <mxPoint x="847" y="3000" as="sourcePoint" />
            <mxPoint x="897" y="2950" as="targetPoint" />
          </mxGeometry>
        </mxCell>
        <mxCell id="XR5SNI3g1OD4vw3caPpb-24" value="" style="endArrow=classic;html=1;rounded=0;" edge="1" parent="1">
          <mxGeometry width="50" height="50" relative="1" as="geometry">
            <mxPoint x="907" y="2830" as="sourcePoint" />
            <mxPoint x="907" y="2960" as="targetPoint" />
          </mxGeometry>
        </mxCell>
        <mxCell id="XR5SNI3g1OD4vw3caPpb-25" value="" style="endArrow=classic;html=1;rounded=0;exitX=0.75;exitY=1;exitDx=0;exitDy=0;entryX=0.5;entryY=0;entryDx=0;entryDy=0;" edge="1" parent="1" source="XR5SNI3g1OD4vw3caPpb-2" target="XR5SNI3g1OD4vw3caPpb-4">
          <mxGeometry width="50" height="50" relative="1" as="geometry">
            <mxPoint x="800" y="3000" as="sourcePoint" />
            <mxPoint x="850" y="2950" as="targetPoint" />
            <Array as="points">
              <mxPoint x="722" y="2910" />
              <mxPoint x="763" y="2910" />
            </Array>
          </mxGeometry>
        </mxCell>
        <mxCell id="XR5SNI3g1OD4vw3caPpb-26" value="" style="endArrow=classic;html=1;rounded=0;exitX=0.5;exitY=0;exitDx=0;exitDy=0;entryX=0.25;entryY=1;entryDx=0;entryDy=0;" edge="1" parent="1" source="XR5SNI3g1OD4vw3caPpb-6" target="XR5SNI3g1OD4vw3caPpb-2">
          <mxGeometry width="50" height="50" relative="1" as="geometry">
            <mxPoint x="800" y="3000" as="sourcePoint" />
            <mxPoint x="850" y="2950" as="targetPoint" />
            <Array as="points">
              <mxPoint x="592" y="2920" />
              <mxPoint x="662" y="2920" />
            </Array>
          </mxGeometry>
        </mxCell>
        <mxCell id="XR5SNI3g1OD4vw3caPpb-27" value="Informacje o potrawie/ odpowiedź" style="text;html=1;align=center;verticalAlign=middle;whiteSpace=wrap;rounded=0;" vertex="1" parent="1">
          <mxGeometry x="425" y="2802" width="200" height="30" as="geometry" />
        </mxCell>
        <mxCell id="XR5SNI3g1OD4vw3caPpb-28" value="Informacje o restauracji/ odpowiedź" style="text;html=1;align=center;verticalAlign=middle;whiteSpace=wrap;rounded=0;" vertex="1" parent="1">
          <mxGeometry x="806.63" y="2803" width="200" height="30" as="geometry" />
        </mxCell>
        <mxCell id="XR5SNI3g1OD4vw3caPpb-29" value="Informacje o potrawie/&lt;div&gt;odpowiedź&lt;/div&gt;" style="text;html=1;align=center;verticalAlign=middle;whiteSpace=wrap;rounded=0;" vertex="1" parent="1">
          <mxGeometry x="726" y="2872" width="121" height="30" as="geometry" />
        </mxCell>
        <mxCell id="XR5SNI3g1OD4vw3caPpb-30" value="id_potrawy/ odpowiedź" style="text;html=1;align=center;verticalAlign=middle;whiteSpace=wrap;rounded=0;" vertex="1" parent="1">
          <mxGeometry x="593" y="2884" width="60" height="30" as="geometry" />
        </mxCell>
        <mxCell id="XR5SNI3g1OD4vw3caPpb-31" value="Restauracje" style="text;html=1;align=center;verticalAlign=middle;whiteSpace=wrap;rounded=0;" vertex="1" parent="1">
          <mxGeometry x="916.5" y="3080" width="60" height="30" as="geometry" />
        </mxCell>
        <mxCell id="XR5SNI3g1OD4vw3caPpb-32" value="Potrawa" style="text;html=1;align=center;verticalAlign=middle;whiteSpace=wrap;rounded=0;" vertex="1" parent="1">
          <mxGeometry x="647" y="3153" width="60" height="30" as="geometry" />
        </mxCell>
        <mxCell id="XR5SNI3g1OD4vw3caPpb-33" value="id_potrawy" style="text;html=1;align=center;verticalAlign=middle;whiteSpace=wrap;rounded=0;" vertex="1" parent="1">
          <mxGeometry x="528" y="3051" width="60" height="30" as="geometry" />
        </mxCell>
        <mxCell id="XR5SNI3g1OD4vw3caPpb-34" value="Potrawa" style="text;html=1;align=center;verticalAlign=middle;whiteSpace=wrap;rounded=0;" vertex="1" parent="1">
          <mxGeometry x="425" y="3093" width="60" height="30" as="geometry" />
        </mxCell>
        <mxCell id="XR5SNI3g1OD4vw3caPpb-35" value="Składanie zamówień" style="text;html=1;align=center;verticalAlign=middle;resizable=0;points=[];autosize=1;strokeColor=none;fillColor=none;fontSize=22;" vertex="1" parent="1">
          <mxGeometry x="702" y="3253" width="230" height="40" as="geometry" />
        </mxCell>
        <mxCell id="XR5SNI3g1OD4vw3caPpb-36" value="Klient" style="rounded=0;whiteSpace=wrap;html=1;" vertex="1" parent="1">
          <mxGeometry x="767" y="3310" width="120" height="60" as="geometry" />
        </mxCell>
        <mxCell id="XR5SNI3g1OD4vw3caPpb-37" value="5.1 Dodaj do koszyka" style="ellipse;whiteSpace=wrap;html=1;aspect=fixed;" vertex="1" parent="1">
          <mxGeometry x="634" y="3420" width="80" height="80" as="geometry" />
        </mxCell>
        <mxCell id="XR5SNI3g1OD4vw3caPpb-38" value="5.3 Złóż zamówienie" style="ellipse;whiteSpace=wrap;html=1;aspect=fixed;" vertex="1" parent="1">
          <mxGeometry x="945.63" y="3420" width="80" height="80" as="geometry" />
        </mxCell>
        <mxCell id="XR5SNI3g1OD4vw3caPpb-39" value="5.2 Usuń z koszyka" style="ellipse;whiteSpace=wrap;html=1;aspect=fixed;" vertex="1" parent="1">
          <mxGeometry x="786" y="3420" width="80" height="80" as="geometry" />
        </mxCell>
        <mxCell id="XR5SNI3g1OD4vw3caPpb-40" value="" style="endArrow=none;html=1;rounded=0;" edge="1" parent="1">
          <mxGeometry width="50" height="50" relative="1" as="geometry">
            <mxPoint x="445" y="3369.4" as="sourcePoint" />
            <mxPoint x="541" y="3369.4" as="targetPoint" />
          </mxGeometry>
        </mxCell>
        <mxCell id="XR5SNI3g1OD4vw3caPpb-41" value="" style="endArrow=none;html=1;rounded=0;" edge="1" parent="1">
          <mxGeometry width="50" height="50" relative="1" as="geometry">
            <mxPoint x="445" y="3379.23" as="sourcePoint" />
            <mxPoint x="541" y="3379.4" as="targetPoint" />
          </mxGeometry>
        </mxCell>
        <mxCell id="XR5SNI3g1OD4vw3caPpb-42" value="" style="endArrow=none;html=1;rounded=0;" edge="1" parent="1">
          <mxGeometry width="50" height="50" relative="1" as="geometry">
            <mxPoint x="445" y="3409.17" as="sourcePoint" />
            <mxPoint x="541" y="3409.17" as="targetPoint" />
          </mxGeometry>
        </mxCell>
        <mxCell id="XR5SNI3g1OD4vw3caPpb-43" value="" style="endArrow=none;html=1;rounded=0;" edge="1" parent="1">
          <mxGeometry width="50" height="50" relative="1" as="geometry">
            <mxPoint x="445" y="3419" as="sourcePoint" />
            <mxPoint x="541" y="3419.17" as="targetPoint" />
          </mxGeometry>
        </mxCell>
        <mxCell id="XR5SNI3g1OD4vw3caPpb-44" value="&lt;span style=&quot;color: rgb(0, 0, 0); font-family: Helvetica; font-size: 12px; font-style: normal; font-variant-ligatures: normal; font-variant-caps: normal; font-weight: 400; letter-spacing: normal; orphans: 2; text-align: center; text-indent: 0px; text-transform: none; widows: 2; word-spacing: 0px; -webkit-text-stroke-width: 0px; white-space: normal; background-color: rgb(251, 251, 251); text-decoration-thickness: initial; text-decoration-style: initial; text-decoration-color: initial; display: inline !important; float: none;&quot;&gt;Restauracje&lt;/span&gt;" style="text;whiteSpace=wrap;html=1;" vertex="1" parent="1">
          <mxGeometry x="458.5" y="3381.67" width="66.25" height="36" as="geometry" />
        </mxCell>
        <mxCell id="XR5SNI3g1OD4vw3caPpb-45" value="" style="endArrow=none;html=1;rounded=0;" edge="1" parent="1">
          <mxGeometry width="50" height="50" relative="1" as="geometry">
            <mxPoint x="449" y="3504" as="sourcePoint" />
            <mxPoint x="545" y="3504" as="targetPoint" />
          </mxGeometry>
        </mxCell>
        <mxCell id="XR5SNI3g1OD4vw3caPpb-46" value="" style="endArrow=none;html=1;rounded=0;" edge="1" parent="1">
          <mxGeometry width="50" height="50" relative="1" as="geometry">
            <mxPoint x="449" y="3513.83" as="sourcePoint" />
            <mxPoint x="545" y="3514" as="targetPoint" />
          </mxGeometry>
        </mxCell>
        <mxCell id="XR5SNI3g1OD4vw3caPpb-47" value="" style="endArrow=none;html=1;rounded=0;" edge="1" parent="1">
          <mxGeometry width="50" height="50" relative="1" as="geometry">
            <mxPoint x="449" y="3543.7699999999995" as="sourcePoint" />
            <mxPoint x="545" y="3543.7699999999995" as="targetPoint" />
          </mxGeometry>
        </mxCell>
        <mxCell id="XR5SNI3g1OD4vw3caPpb-48" value="" style="endArrow=none;html=1;rounded=0;" edge="1" parent="1">
          <mxGeometry width="50" height="50" relative="1" as="geometry">
            <mxPoint x="449" y="3553.6" as="sourcePoint" />
            <mxPoint x="545" y="3553.7699999999995" as="targetPoint" />
          </mxGeometry>
        </mxCell>
        <mxCell id="XR5SNI3g1OD4vw3caPpb-49" value="&lt;span style=&quot;color: rgb(0, 0, 0); font-family: Helvetica; font-size: 12px; font-style: normal; font-variant-ligatures: normal; font-variant-caps: normal; font-weight: 400; letter-spacing: normal; orphans: 2; text-align: center; text-indent: 0px; text-transform: none; widows: 2; word-spacing: 0px; -webkit-text-stroke-width: 0px; white-space: normal; background-color: rgb(251, 251, 251); text-decoration-thickness: initial; text-decoration-style: initial; text-decoration-color: initial; display: inline !important; float: none;&quot;&gt;Potrawy&lt;/span&gt;" style="text;whiteSpace=wrap;html=1;" vertex="1" parent="1">
          <mxGeometry x="461" y="3516" width="59" height="36" as="geometry" />
        </mxCell>
        <mxCell id="XR5SNI3g1OD4vw3caPpb-55" value="" style="endArrow=none;html=1;rounded=0;" edge="1" parent="1">
          <mxGeometry width="50" height="50" relative="1" as="geometry">
            <mxPoint x="628" y="3630" as="sourcePoint" />
            <mxPoint x="724" y="3630" as="targetPoint" />
          </mxGeometry>
        </mxCell>
        <mxCell id="XR5SNI3g1OD4vw3caPpb-56" value="" style="endArrow=none;html=1;rounded=0;" edge="1" parent="1">
          <mxGeometry width="50" height="50" relative="1" as="geometry">
            <mxPoint x="628" y="3639.8300000000004" as="sourcePoint" />
            <mxPoint x="724" y="3640" as="targetPoint" />
          </mxGeometry>
        </mxCell>
        <mxCell id="XR5SNI3g1OD4vw3caPpb-57" value="" style="endArrow=none;html=1;rounded=0;" edge="1" parent="1">
          <mxGeometry width="50" height="50" relative="1" as="geometry">
            <mxPoint x="628" y="3669.7700000000004" as="sourcePoint" />
            <mxPoint x="724" y="3669.7700000000004" as="targetPoint" />
          </mxGeometry>
        </mxCell>
        <mxCell id="XR5SNI3g1OD4vw3caPpb-58" value="" style="endArrow=none;html=1;rounded=0;" edge="1" parent="1">
          <mxGeometry width="50" height="50" relative="1" as="geometry">
            <mxPoint x="628" y="3679.6000000000004" as="sourcePoint" />
            <mxPoint x="724" y="3679.7700000000004" as="targetPoint" />
          </mxGeometry>
        </mxCell>
        <mxCell id="XR5SNI3g1OD4vw3caPpb-59" value="&lt;span style=&quot;color: rgb(0, 0, 0); font-family: Helvetica; font-size: 12px; font-style: normal; font-variant-ligatures: normal; font-variant-caps: normal; font-weight: 400; letter-spacing: normal; orphans: 2; text-align: center; text-indent: 0px; text-transform: none; widows: 2; word-spacing: 0px; -webkit-text-stroke-width: 0px; white-space: normal; background-color: rgb(251, 251, 251); text-decoration-thickness: initial; text-decoration-style: initial; text-decoration-color: initial; display: inline !important; float: none;&quot;&gt;Koszyk&lt;/span&gt;" style="text;whiteSpace=wrap;html=1;" vertex="1" parent="1">
          <mxGeometry x="652" y="3643.63" width="36" height="26.37" as="geometry" />
        </mxCell>
        <mxCell id="XR5SNI3g1OD4vw3caPpb-64" value="" style="endArrow=none;html=1;rounded=0;" edge="1" parent="1">
          <mxGeometry width="50" height="50" relative="1" as="geometry">
            <mxPoint x="941.5" y="3629.03" as="sourcePoint" />
            <mxPoint x="1037.5" y="3629.03" as="targetPoint" />
          </mxGeometry>
        </mxCell>
        <mxCell id="XR5SNI3g1OD4vw3caPpb-65" value="" style="endArrow=none;html=1;rounded=0;" edge="1" parent="1">
          <mxGeometry width="50" height="50" relative="1" as="geometry">
            <mxPoint x="941.5" y="3638.86" as="sourcePoint" />
            <mxPoint x="1037.5" y="3639.03" as="targetPoint" />
          </mxGeometry>
        </mxCell>
        <mxCell id="XR5SNI3g1OD4vw3caPpb-66" value="" style="endArrow=none;html=1;rounded=0;" edge="1" parent="1">
          <mxGeometry width="50" height="50" relative="1" as="geometry">
            <mxPoint x="941.5" y="3668.8" as="sourcePoint" />
            <mxPoint x="1037.5" y="3668.8" as="targetPoint" />
          </mxGeometry>
        </mxCell>
        <mxCell id="XR5SNI3g1OD4vw3caPpb-67" value="" style="endArrow=none;html=1;rounded=0;" edge="1" parent="1">
          <mxGeometry width="50" height="50" relative="1" as="geometry">
            <mxPoint x="941.5" y="3678.63" as="sourcePoint" />
            <mxPoint x="1037.5" y="3678.8" as="targetPoint" />
          </mxGeometry>
        </mxCell>
        <mxCell id="XR5SNI3g1OD4vw3caPpb-68" value="&lt;span style=&quot;color: rgb(0, 0, 0); font-family: Helvetica; font-size: 12px; font-style: normal; font-variant-ligatures: normal; font-variant-caps: normal; font-weight: 400; letter-spacing: normal; orphans: 2; text-align: center; text-indent: 0px; text-transform: none; widows: 2; word-spacing: 0px; -webkit-text-stroke-width: 0px; white-space: normal; background-color: rgb(251, 251, 251); text-decoration-thickness: initial; text-decoration-style: initial; text-decoration-color: initial; display: inline !important; float: none;&quot;&gt;Zamówienia&amp;nbsp;&lt;/span&gt;" style="text;whiteSpace=wrap;html=1;" vertex="1" parent="1">
          <mxGeometry x="952.5" y="3640.3" width="72.5" height="36" as="geometry" />
        </mxCell>
        <mxCell id="XR5SNI3g1OD4vw3caPpb-69" value="" style="endArrow=classic;html=1;rounded=0;exitX=0.5;exitY=1;exitDx=0;exitDy=0;" edge="1" parent="1" source="XR5SNI3g1OD4vw3caPpb-38">
          <mxGeometry width="50" height="50" relative="1" as="geometry">
            <mxPoint x="800" y="3630" as="sourcePoint" />
            <mxPoint x="986" y="3630" as="targetPoint" />
          </mxGeometry>
        </mxCell>
        <mxCell id="XR5SNI3g1OD4vw3caPpb-70" value="" style="endArrow=classic;html=1;rounded=0;entryX=0;entryY=0.5;entryDx=0;entryDy=0;" edge="1" parent="1" target="XR5SNI3g1OD4vw3caPpb-37">
          <mxGeometry width="50" height="50" relative="1" as="geometry">
            <mxPoint x="540" y="3390" as="sourcePoint" />
            <mxPoint x="850" y="3580" as="targetPoint" />
            <Array as="points">
              <mxPoint x="580" y="3390" />
              <mxPoint x="580" y="3460" />
            </Array>
          </mxGeometry>
        </mxCell>
        <mxCell id="XR5SNI3g1OD4vw3caPpb-71" value="" style="endArrow=classic;html=1;rounded=0;entryX=0;entryY=0.5;entryDx=0;entryDy=0;" edge="1" parent="1" target="XR5SNI3g1OD4vw3caPpb-37">
          <mxGeometry width="50" height="50" relative="1" as="geometry">
            <mxPoint x="550" y="3530" as="sourcePoint" />
            <mxPoint x="850" y="3580" as="targetPoint" />
            <Array as="points">
              <mxPoint x="580" y="3530" />
              <mxPoint x="580" y="3460" />
            </Array>
          </mxGeometry>
        </mxCell>
        <mxCell id="XR5SNI3g1OD4vw3caPpb-72" value="" style="endArrow=classic;html=1;rounded=0;exitX=0;exitY=0.5;exitDx=0;exitDy=0;entryX=0.5;entryY=0;entryDx=0;entryDy=0;" edge="1" parent="1" source="XR5SNI3g1OD4vw3caPpb-36" target="XR5SNI3g1OD4vw3caPpb-37">
          <mxGeometry width="50" height="50" relative="1" as="geometry">
            <mxPoint x="800" y="3630" as="sourcePoint" />
            <mxPoint x="850" y="3580" as="targetPoint" />
            <Array as="points">
              <mxPoint x="674" y="3340" />
            </Array>
          </mxGeometry>
        </mxCell>
        <mxCell id="XR5SNI3g1OD4vw3caPpb-73" value="" style="endArrow=classic;startArrow=classic;html=1;rounded=0;exitX=1;exitY=0.5;exitDx=0;exitDy=0;entryX=0.5;entryY=0;entryDx=0;entryDy=0;" edge="1" parent="1" source="XR5SNI3g1OD4vw3caPpb-36" target="XR5SNI3g1OD4vw3caPpb-38">
          <mxGeometry width="50" height="50" relative="1" as="geometry">
            <mxPoint x="930" y="3350" as="sourcePoint" />
            <mxPoint x="850" y="3580" as="targetPoint" />
            <Array as="points">
              <mxPoint x="986" y="3340" />
            </Array>
          </mxGeometry>
        </mxCell>
        <mxCell id="XR5SNI3g1OD4vw3caPpb-74" value="" style="endArrow=classic;html=1;rounded=0;exitX=0.5;exitY=1;exitDx=0;exitDy=0;entryX=0.5;entryY=0;entryDx=0;entryDy=0;" edge="1" parent="1" source="XR5SNI3g1OD4vw3caPpb-36" target="XR5SNI3g1OD4vw3caPpb-39">
          <mxGeometry width="50" height="50" relative="1" as="geometry">
            <mxPoint x="800" y="3630" as="sourcePoint" />
            <mxPoint x="850" y="3410" as="targetPoint" />
          </mxGeometry>
        </mxCell>
        <mxCell id="XR5SNI3g1OD4vw3caPpb-75" value="" style="endArrow=classic;html=1;rounded=0;exitX=0.5;exitY=1;exitDx=0;exitDy=0;" edge="1" parent="1" source="XR5SNI3g1OD4vw3caPpb-39">
          <mxGeometry width="50" height="50" relative="1" as="geometry">
            <mxPoint x="800" y="3630" as="sourcePoint" />
            <mxPoint x="720" y="3660" as="targetPoint" />
            <Array as="points">
              <mxPoint x="826" y="3660" />
            </Array>
          </mxGeometry>
        </mxCell>
        <mxCell id="XR5SNI3g1OD4vw3caPpb-76" value="" style="endArrow=classic;html=1;rounded=0;entryX=0;entryY=0.5;entryDx=0;entryDy=0;" edge="1" parent="1" target="XR5SNI3g1OD4vw3caPpb-38">
          <mxGeometry width="50" height="50" relative="1" as="geometry">
            <mxPoint x="670" y="3680" as="sourcePoint" />
            <mxPoint x="850" y="3580" as="targetPoint" />
            <Array as="points">
              <mxPoint x="670" y="3720" />
              <mxPoint x="900" y="3720" />
              <mxPoint x="900" y="3460" />
            </Array>
          </mxGeometry>
        </mxCell>
        <mxCell id="XR5SNI3g1OD4vw3caPpb-77" value="" style="endArrow=classic;html=1;rounded=0;exitX=0.5;exitY=1;exitDx=0;exitDy=0;" edge="1" parent="1" source="XR5SNI3g1OD4vw3caPpb-37">
          <mxGeometry width="50" height="50" relative="1" as="geometry">
            <mxPoint x="800" y="3630" as="sourcePoint" />
            <mxPoint x="674" y="3630" as="targetPoint" />
          </mxGeometry>
        </mxCell>
        <mxCell id="XR5SNI3g1OD4vw3caPpb-78" value="id klienta/ odpowiedź" style="text;html=1;align=center;verticalAlign=middle;whiteSpace=wrap;rounded=0;" vertex="1" parent="1">
          <mxGeometry x="882.5" y="3313" width="140" height="30" as="geometry" />
        </mxCell>
        <mxCell id="XR5SNI3g1OD4vw3caPpb-79" value="Zamówienie" style="text;html=1;align=center;verticalAlign=middle;whiteSpace=wrap;rounded=0;" vertex="1" parent="1">
          <mxGeometry x="997" y="3549" width="60" height="30" as="geometry" />
        </mxCell>
        <mxCell id="XR5SNI3g1OD4vw3caPpb-80" value="id_potrawy" style="text;html=1;align=center;verticalAlign=middle;whiteSpace=wrap;rounded=0;" vertex="1" parent="1">
          <mxGeometry x="763" y="3718" width="60" height="30" as="geometry" />
        </mxCell>
        <mxCell id="XR5SNI3g1OD4vw3caPpb-81" value="id_użytkownika, id_potrawy" style="text;html=1;align=center;verticalAlign=middle;whiteSpace=wrap;rounded=0;" vertex="1" parent="1">
          <mxGeometry x="749" y="3622" width="60" height="30" as="geometry" />
        </mxCell>
        <mxCell id="XR5SNI3g1OD4vw3caPpb-82" value="id_użytkownika, id_potrawy" style="text;html=1;align=center;verticalAlign=middle;whiteSpace=wrap;rounded=0;" vertex="1" parent="1">
          <mxGeometry x="691" y="3541" width="60" height="30" as="geometry" />
        </mxCell>
        <mxCell id="XR5SNI3g1OD4vw3caPpb-83" value="id_restauracji" style="text;html=1;align=center;verticalAlign=middle;whiteSpace=wrap;rounded=0;" vertex="1" parent="1">
          <mxGeometry x="592" y="3400" width="60" height="30" as="geometry" />
        </mxCell>
        <mxCell id="XR5SNI3g1OD4vw3caPpb-84" value="id_potrawy" style="text;html=1;align=center;verticalAlign=middle;whiteSpace=wrap;rounded=0;" vertex="1" parent="1">
          <mxGeometry x="585" y="3486" width="60" height="30" as="geometry" />
        </mxCell>
        <mxCell id="XR5SNI3g1OD4vw3caPpb-85" value="Dodawanie komentarzy" style="text;html=1;align=center;verticalAlign=middle;resizable=0;points=[];autosize=1;strokeColor=none;fillColor=none;fontSize=22;" vertex="1" parent="1">
          <mxGeometry x="692" y="3790" width="250" height="40" as="geometry" />
        </mxCell>
        <mxCell id="XR5SNI3g1OD4vw3caPpb-87" value="Klient" style="rounded=0;whiteSpace=wrap;html=1;" vertex="1" parent="1">
          <mxGeometry x="757" y="3850" width="120" height="60" as="geometry" />
        </mxCell>
        <mxCell id="XR5SNI3g1OD4vw3caPpb-88" value="6.2 Komentarz do potrawy" style="ellipse;whiteSpace=wrap;html=1;aspect=fixed;" vertex="1" parent="1">
          <mxGeometry x="970.75" y="3944.97" width="80" height="80" as="geometry" />
        </mxCell>
        <mxCell id="XR5SNI3g1OD4vw3caPpb-89" value="6.1 Komentarz do restauracji" style="ellipse;whiteSpace=wrap;html=1;aspect=fixed;" vertex="1" parent="1">
          <mxGeometry x="543" y="3944.97" width="80" height="80" as="geometry" />
        </mxCell>
        <mxCell id="XR5SNI3g1OD4vw3caPpb-95" value="" style="endArrow=none;html=1;rounded=0;" edge="1" parent="1">
          <mxGeometry width="50" height="50" relative="1" as="geometry">
            <mxPoint x="771.5" y="3958.7" as="sourcePoint" />
            <mxPoint x="867.5" y="3958.7" as="targetPoint" />
          </mxGeometry>
        </mxCell>
        <mxCell id="XR5SNI3g1OD4vw3caPpb-96" value="" style="endArrow=none;html=1;rounded=0;" edge="1" parent="1">
          <mxGeometry width="50" height="50" relative="1" as="geometry">
            <mxPoint x="771.5" y="3968.5299999999997" as="sourcePoint" />
            <mxPoint x="867.5" y="3968.7" as="targetPoint" />
          </mxGeometry>
        </mxCell>
        <mxCell id="XR5SNI3g1OD4vw3caPpb-97" value="" style="endArrow=none;html=1;rounded=0;" edge="1" parent="1">
          <mxGeometry width="50" height="50" relative="1" as="geometry">
            <mxPoint x="771.5" y="3998.4700000000003" as="sourcePoint" />
            <mxPoint x="867.5" y="3998.4700000000003" as="targetPoint" />
          </mxGeometry>
        </mxCell>
        <mxCell id="XR5SNI3g1OD4vw3caPpb-98" value="" style="endArrow=none;html=1;rounded=0;" edge="1" parent="1">
          <mxGeometry width="50" height="50" relative="1" as="geometry">
            <mxPoint x="771.5" y="4008.3" as="sourcePoint" />
            <mxPoint x="867.5" y="4008.4700000000003" as="targetPoint" />
          </mxGeometry>
        </mxCell>
        <mxCell id="XR5SNI3g1OD4vw3caPpb-99" value="&lt;span style=&quot;color: rgb(0, 0, 0); font-family: Helvetica; font-size: 12px; font-style: normal; font-variant-ligatures: normal; font-variant-caps: normal; font-weight: 400; letter-spacing: normal; orphans: 2; text-align: center; text-indent: 0px; text-transform: none; widows: 2; word-spacing: 0px; -webkit-text-stroke-width: 0px; white-space: normal; background-color: rgb(251, 251, 251); text-decoration-thickness: initial; text-decoration-style: initial; text-decoration-color: initial; display: inline !important; float: none;&quot;&gt;Restauracje&lt;/span&gt;" style="text;whiteSpace=wrap;html=1;" vertex="1" parent="1">
          <mxGeometry x="785" y="3970.9700000000003" width="66.25" height="36" as="geometry" />
        </mxCell>
        <mxCell id="XR5SNI3g1OD4vw3caPpb-100" value="" style="endArrow=none;html=1;rounded=0;" edge="1" parent="1">
          <mxGeometry width="50" height="50" relative="1" as="geometry">
            <mxPoint x="1170" y="3959.67" as="sourcePoint" />
            <mxPoint x="1266" y="3959.67" as="targetPoint" />
          </mxGeometry>
        </mxCell>
        <mxCell id="XR5SNI3g1OD4vw3caPpb-101" value="" style="endArrow=none;html=1;rounded=0;" edge="1" parent="1">
          <mxGeometry width="50" height="50" relative="1" as="geometry">
            <mxPoint x="1170" y="3969.5" as="sourcePoint" />
            <mxPoint x="1266" y="3969.67" as="targetPoint" />
          </mxGeometry>
        </mxCell>
        <mxCell id="XR5SNI3g1OD4vw3caPpb-102" value="" style="endArrow=none;html=1;rounded=0;" edge="1" parent="1">
          <mxGeometry width="50" height="50" relative="1" as="geometry">
            <mxPoint x="1170" y="3999.4399999999996" as="sourcePoint" />
            <mxPoint x="1266" y="3999.4399999999996" as="targetPoint" />
          </mxGeometry>
        </mxCell>
        <mxCell id="XR5SNI3g1OD4vw3caPpb-103" value="" style="endArrow=none;html=1;rounded=0;" edge="1" parent="1">
          <mxGeometry width="50" height="50" relative="1" as="geometry">
            <mxPoint x="1170" y="4009.27" as="sourcePoint" />
            <mxPoint x="1266" y="4009.4399999999996" as="targetPoint" />
          </mxGeometry>
        </mxCell>
        <mxCell id="XR5SNI3g1OD4vw3caPpb-104" value="&lt;span style=&quot;color: rgb(0, 0, 0); font-family: Helvetica; font-size: 12px; font-style: normal; font-variant-ligatures: normal; font-variant-caps: normal; font-weight: 400; letter-spacing: normal; orphans: 2; text-align: center; text-indent: 0px; text-transform: none; widows: 2; word-spacing: 0px; -webkit-text-stroke-width: 0px; white-space: normal; background-color: rgb(251, 251, 251); text-decoration-thickness: initial; text-decoration-style: initial; text-decoration-color: initial; display: inline !important; float: none;&quot;&gt;Potrawy&lt;/span&gt;" style="text;whiteSpace=wrap;html=1;" vertex="1" parent="1">
          <mxGeometry x="1182" y="3971.67" width="59" height="36" as="geometry" />
        </mxCell>
        <mxCell id="XR5SNI3g1OD4vw3caPpb-105" value="" style="endArrow=none;html=1;rounded=0;" edge="1" parent="1">
          <mxGeometry width="50" height="50" relative="1" as="geometry">
            <mxPoint x="775.5" y="4074" as="sourcePoint" />
            <mxPoint x="871.5" y="4074" as="targetPoint" />
          </mxGeometry>
        </mxCell>
        <mxCell id="XR5SNI3g1OD4vw3caPpb-106" value="" style="endArrow=none;html=1;rounded=0;" edge="1" parent="1">
          <mxGeometry width="50" height="50" relative="1" as="geometry">
            <mxPoint x="775.5" y="4083.83" as="sourcePoint" />
            <mxPoint x="871.5" y="4084" as="targetPoint" />
          </mxGeometry>
        </mxCell>
        <mxCell id="XR5SNI3g1OD4vw3caPpb-107" value="" style="endArrow=none;html=1;rounded=0;" edge="1" parent="1">
          <mxGeometry width="50" height="50" relative="1" as="geometry">
            <mxPoint x="775.5" y="4113.77" as="sourcePoint" />
            <mxPoint x="871.5" y="4113.77" as="targetPoint" />
          </mxGeometry>
        </mxCell>
        <mxCell id="XR5SNI3g1OD4vw3caPpb-108" value="" style="endArrow=none;html=1;rounded=0;" edge="1" parent="1">
          <mxGeometry width="50" height="50" relative="1" as="geometry">
            <mxPoint x="775.5" y="4123.6" as="sourcePoint" />
            <mxPoint x="871.5" y="4123.77" as="targetPoint" />
          </mxGeometry>
        </mxCell>
        <mxCell id="XR5SNI3g1OD4vw3caPpb-109" value="&lt;span style=&quot;color: rgb(0, 0, 0); font-family: Helvetica; font-size: 12px; font-style: normal; font-variant-ligatures: normal; font-variant-caps: normal; font-weight: 400; letter-spacing: normal; orphans: 2; text-align: center; text-indent: 0px; text-transform: none; widows: 2; word-spacing: 0px; -webkit-text-stroke-width: 0px; white-space: normal; background-color: rgb(251, 251, 251); text-decoration-thickness: initial; text-decoration-style: initial; text-decoration-color: initial; display: inline !important; float: none;&quot;&gt;Komentarze&lt;/span&gt;" style="text;whiteSpace=wrap;html=1;" vertex="1" parent="1">
          <mxGeometry x="787.5" y="4085.27" width="72" height="24" as="geometry" />
        </mxCell>
        <mxCell id="XR5SNI3g1OD4vw3caPpb-110" value="" style="endArrow=classic;html=1;rounded=0;entryX=1;entryY=0.5;entryDx=0;entryDy=0;" edge="1" parent="1" target="XR5SNI3g1OD4vw3caPpb-88">
          <mxGeometry width="50" height="50" relative="1" as="geometry">
            <mxPoint x="1170" y="3985" as="sourcePoint" />
            <mxPoint x="850" y="4080" as="targetPoint" />
          </mxGeometry>
        </mxCell>
        <mxCell id="XR5SNI3g1OD4vw3caPpb-111" value="" style="endArrow=classic;html=1;rounded=0;exitX=1;exitY=0.5;exitDx=0;exitDy=0;entryX=0.5;entryY=0;entryDx=0;entryDy=0;" edge="1" parent="1" source="XR5SNI3g1OD4vw3caPpb-87" target="XR5SNI3g1OD4vw3caPpb-88">
          <mxGeometry width="50" height="50" relative="1" as="geometry">
            <mxPoint x="800" y="4130" as="sourcePoint" />
            <mxPoint x="850" y="4080" as="targetPoint" />
            <Array as="points">
              <mxPoint x="1011" y="3880" />
            </Array>
          </mxGeometry>
        </mxCell>
        <mxCell id="XR5SNI3g1OD4vw3caPpb-112" value="" style="endArrow=classic;html=1;rounded=0;exitX=0.5;exitY=1;exitDx=0;exitDy=0;" edge="1" parent="1" source="XR5SNI3g1OD4vw3caPpb-88">
          <mxGeometry width="50" height="50" relative="1" as="geometry">
            <mxPoint x="800" y="4130" as="sourcePoint" />
            <mxPoint x="870" y="4100" as="targetPoint" />
            <Array as="points">
              <mxPoint x="1010" y="4100" />
            </Array>
          </mxGeometry>
        </mxCell>
        <mxCell id="XR5SNI3g1OD4vw3caPpb-113" value="" style="endArrow=classic;html=1;rounded=0;exitX=0.5;exitY=1;exitDx=0;exitDy=0;" edge="1" parent="1" source="XR5SNI3g1OD4vw3caPpb-89">
          <mxGeometry width="50" height="50" relative="1" as="geometry">
            <mxPoint x="800" y="4130" as="sourcePoint" />
            <mxPoint x="780" y="4100" as="targetPoint" />
            <Array as="points">
              <mxPoint x="583" y="4100" />
            </Array>
          </mxGeometry>
        </mxCell>
        <mxCell id="XR5SNI3g1OD4vw3caPpb-114" value="" style="endArrow=classic;html=1;rounded=0;entryX=1;entryY=0.5;entryDx=0;entryDy=0;" edge="1" parent="1" target="XR5SNI3g1OD4vw3caPpb-89">
          <mxGeometry width="50" height="50" relative="1" as="geometry">
            <mxPoint x="770" y="3985" as="sourcePoint" />
            <mxPoint x="850" y="4080" as="targetPoint" />
          </mxGeometry>
        </mxCell>
        <mxCell id="XR5SNI3g1OD4vw3caPpb-115" value="" style="endArrow=classic;html=1;rounded=0;entryX=0;entryY=0.5;entryDx=0;entryDy=0;" edge="1" parent="1" target="XR5SNI3g1OD4vw3caPpb-88">
          <mxGeometry width="50" height="50" relative="1" as="geometry">
            <mxPoint x="870" y="3985" as="sourcePoint" />
            <mxPoint x="850" y="4080" as="targetPoint" />
          </mxGeometry>
        </mxCell>
        <mxCell id="XR5SNI3g1OD4vw3caPpb-116" value="" style="endArrow=classic;html=1;rounded=0;exitX=0;exitY=0.5;exitDx=0;exitDy=0;entryX=0.5;entryY=0;entryDx=0;entryDy=0;" edge="1" parent="1" source="XR5SNI3g1OD4vw3caPpb-87" target="XR5SNI3g1OD4vw3caPpb-89">
          <mxGeometry width="50" height="50" relative="1" as="geometry">
            <mxPoint x="800" y="4130" as="sourcePoint" />
            <mxPoint x="850" y="4080" as="targetPoint" />
            <Array as="points">
              <mxPoint x="583" y="3880" />
            </Array>
          </mxGeometry>
        </mxCell>
        <mxCell id="XR5SNI3g1OD4vw3caPpb-117" value="Komentarz na temat restauracji" style="text;html=1;align=center;verticalAlign=middle;whiteSpace=wrap;rounded=0;" vertex="1" parent="1">
          <mxGeometry x="567.5" y="3852" width="190" height="30" as="geometry" />
        </mxCell>
        <mxCell id="XR5SNI3g1OD4vw3caPpb-118" value="Komentarz na temat potrawy" style="text;html=1;align=center;verticalAlign=middle;whiteSpace=wrap;rounded=0;" vertex="1" parent="1">
          <mxGeometry x="870.75" y="3852" width="180" height="30" as="geometry" />
        </mxCell>
        <mxCell id="XR5SNI3g1OD4vw3caPpb-119" value="id_restauracji" style="text;html=1;align=center;verticalAlign=middle;whiteSpace=wrap;rounded=0;" vertex="1" parent="1">
          <mxGeometry x="673" y="3960" width="60" height="30" as="geometry" />
        </mxCell>
        <mxCell id="XR5SNI3g1OD4vw3caPpb-120" value="id_restauracji" style="text;html=1;align=center;verticalAlign=middle;whiteSpace=wrap;rounded=0;" vertex="1" parent="1">
          <mxGeometry x="889.5" y="3960" width="60" height="30" as="geometry" />
        </mxCell>
        <mxCell id="XR5SNI3g1OD4vw3caPpb-121" value="id_potrawy" style="text;html=1;align=center;verticalAlign=middle;whiteSpace=wrap;rounded=0;" vertex="1" parent="1">
          <mxGeometry x="1077" y="3960" width="60" height="30" as="geometry" />
        </mxCell>
        <mxCell id="XR5SNI3g1OD4vw3caPpb-122" value="Komentarz" style="text;html=1;align=center;verticalAlign=middle;whiteSpace=wrap;rounded=0;" vertex="1" parent="1">
          <mxGeometry x="653" y="4077" width="60" height="30" as="geometry" />
        </mxCell>
        <mxCell id="XR5SNI3g1OD4vw3caPpb-123" value="Komentarz" style="text;html=1;align=center;verticalAlign=middle;whiteSpace=wrap;rounded=0;" vertex="1" parent="1">
          <mxGeometry x="910.75" y="4077" width="60" height="30" as="geometry" />
        </mxCell>
      </root>
    </mxGraphModel>
  </diagram>
</mxfile>
